<?xml version="1.0" encoding="UTF-8"?>
<!DOCTYPE svg PUBLIC "-//W3C//DTD SVG 1.1//EN" "http://www.w3.org/Graphics/SVG/1.1/DTD/svg11.dtd">
<svg xmlns="http://www.w3.org/2000/svg" version="1.1" width="512px" height="512px" style="shape-rendering:geometricPrecision; text-rendering:geometricPrecision; image-rendering:optimizeQuality; fill-rule:evenodd; clip-rule:evenodd" xmlns:xlink="http://www.w3.org/1999/xlink">
<g><path style="opacity:0.982" fill="#020101" d="M 174.5,-0.5 C 178.5,-0.5 182.5,-0.5 186.5,-0.5C 197.004,6.68219 207.504,14.0155 218,21.5C 228.669,14.3184 239.169,6.98507 249.5,-0.5C 253.833,-0.5 258.167,-0.5 262.5,-0.5C 272.817,6.81023 283.15,14.1436 293.5,21.5C 303.85,14.1436 314.183,6.81023 324.5,-0.5C 328.833,-0.5 333.167,-0.5 337.5,-0.5C 347.831,6.98507 358.331,14.3184 369,21.5C 375.552,16.6223 382.385,12.1223 389.5,8C 399.726,5.51435 407.559,8.68102 413,17.5C 414.137,48.4578 414.97,79.4578 415.5,110.5C 431.164,118.787 435.331,131.121 428,147.5C 420.672,157.23 410.838,161.23 398.5,159.5C 398.33,160.822 398.663,161.989 399.5,163C 428.429,165.6 441.929,181.434 440,210.5C 435.548,229.456 423.714,240.123 404.5,242.5C 404.34,244.199 404.506,245.866 405,247.5C 410.08,251.909 414.414,256.909 418,262.5C 420.07,268.282 419.737,273.949 417,279.5C 404.581,308.92 385.748,333.42 360.5,353C 394.07,366.57 418.57,389.737 434,422.5C 438.097,432.473 439.43,442.806 438,453.5C 431.917,471.3 419.417,479.8 400.5,479C 394.68,478.338 389.513,476.172 385,472.5C 384.5,478.509 384.667,484.509 385.5,490.5C 385.566,500.395 381.232,507.395 372.5,511.5C 294.833,511.5 217.167,511.5 139.5,511.5C 133.546,509.043 129.379,504.71 127,498.5C 126.708,489.769 126.541,481.103 126.5,472.5C 107.116,483.723 90.616,480.39 77,462.5C 71.9943,452.119 71.3276,441.452 75,430.5C 88.7171,393.116 114.217,367.282 151.5,353C 124.337,332.509 104.837,306.342 93,274.5C 92.0229,269.266 92.6896,264.266 95,259.5C 99.723,255.28 103.89,250.613 107.5,245.5C 107.167,244.833 106.833,244.167 106.5,243.5C 80.384,236.938 68.884,220.272 72,193.5C 78.1544,173.663 91.6544,163.33 112.5,162.5C 112.833,161.833 113.167,161.167 113.5,160.5C 86.7955,159.996 76.6288,146.996 83,121.5C 86.2928,115.696 91.1261,112.029 97.5,110.5C 97.3334,80.1648 97.5,49.8315 98,19.5C 102.932,9.11984 111.099,5.28651 122.5,8C 129.436,12.3818 136.269,16.8818 143,21.5C 153.496,14.0155 163.996,6.68219 174.5,-0.5 Z"/></g>
<g><path style="opacity:1" fill="#f2df75" d="M 314.5,114.5 C 309.384,116.795 304.051,117.129 298.5,115.5C 297.746,112.909 296.079,111.076 293.5,110C 240.834,109.5 188.168,109.333 135.5,109.5C 135.169,84.9943 135.502,60.6609 136.5,36.5C 140.856,37.8097 145.189,37.6431 149.5,36C 159.873,28.8199 170.206,21.6533 180.5,14.5C 189.894,20.3851 198.894,26.8851 207.5,34C 214.5,38.6667 221.5,38.6667 228.5,34C 237.245,26.8801 246.411,20.3801 256,14.5C 265.748,20.9601 275.248,27.7935 284.5,35C 290.47,38.246 296.47,38.246 302.5,35C 311.752,27.7935 321.252,20.9601 331,14.5C 341.891,22.3658 353.058,29.8658 364.5,37C 368.261,37.7383 371.928,37.4049 375.5,36C 381.779,32.054 387.779,27.7206 393.5,23C 395.701,22.1751 397.534,22.6751 399,24.5C 399.5,52.8314 399.667,81.1647 399.5,109.5C 372.498,109.333 345.498,109.5 318.5,110C 316.356,110.792 315.023,112.292 314.5,114.5 Z"/></g>
<g><path style="opacity:1" fill="#edba62" d="M 136.5,36.5 C 135.502,60.6609 135.169,84.9943 135.5,109.5C 127.833,109.5 120.167,109.5 112.5,109.5C 112.333,80.8314 112.5,52.1647 113,23.5C 115.21,22.2512 117.376,22.4178 119.5,24C 125.068,28.416 130.735,32.5827 136.5,36.5 Z"/></g>
<g><path style="opacity:1" fill="#050402" d="M 162.5,42.5 C 175.916,40.2893 185.416,45.2893 191,57.5C 191.91,66.2438 191.576,74.9105 190,83.5C 181.866,97.3254 170.699,100.492 156.5,93C 152.279,89.3948 149.446,84.8948 148,79.5C 143.521,63.1734 148.354,50.8401 162.5,42.5 Z"/></g>
<g><path style="opacity:1" fill="#040301" d="M 248.5,42.5 C 261.951,40.3062 271.451,45.3062 277,57.5C 277.91,66.2438 277.576,74.9105 276,83.5C 268.874,96.5424 258.374,100.042 244.5,94C 238.933,90.7128 235.433,85.8795 234,79.5C 233.104,71.7536 233.437,64.087 235,56.5C 237.687,49.981 242.187,45.3143 248.5,42.5 Z"/></g>
<g><path style="opacity:1" fill="#070603" d="M 334.5,42.5 C 349.321,39.9093 359.155,45.5759 364,59.5C 365.066,67.9943 364.399,76.3277 362,84.5C 354.375,96.699 343.875,99.8656 330.5,94C 325.422,90.3585 321.922,85.5252 320,79.5C 319.104,71.7536 319.437,64.087 321,56.5C 323.687,49.981 328.187,45.3143 334.5,42.5 Z"/></g>
<g><path style="opacity:1" fill="#f9849a" d="M 165.5,57.5 C 169.603,56.7691 173.103,57.7691 176,60.5C 176.667,66.5 176.667,72.5 176,78.5C 171.162,84.0359 166.829,83.7026 163,77.5C 162.333,72.1667 162.333,66.8333 163,61.5C 163.662,60.0161 164.496,58.6828 165.5,57.5 Z"/></g>
<g><path style="opacity:1" fill="#ec4568" d="M 252.5,57.5 C 257.439,56.3519 260.939,58.0186 263,62.5C 263.667,67.1667 263.667,71.8333 263,76.5C 258.761,84.0865 254.095,84.4198 249,77.5C 248.333,72.1667 248.333,66.8333 249,61.5C 249.69,59.6498 250.856,58.3164 252.5,57.5 Z"/></g>
<g><path style="opacity:1" fill="#f18195" d="M 338.5,57.5 C 342.909,56.6185 346.409,57.9518 349,61.5C 349.667,66.5 349.667,71.5 349,76.5C 344.813,84.073 340.146,84.4064 335,77.5C 334.333,72.1667 334.333,66.8333 335,61.5C 336.032,59.9733 337.199,58.64 338.5,57.5 Z"/></g>
<g><path style="opacity:1" fill="#efbb62" d="M 314.5,114.5 C 313.704,118.684 315.037,121.85 318.5,124C 348.833,124.333 379.167,124.667 409.5,125C 418.407,130.533 418.741,136.533 410.5,143C 313.834,143.5 217.167,143.667 120.5,143.5C 117.833,137.167 117.833,130.833 120.5,124.5C 178.168,124.667 235.834,124.5 293.5,124C 297.488,122.516 299.154,119.683 298.5,115.5C 304.051,117.129 309.384,116.795 314.5,114.5 Z"/></g>
<g><path style="opacity:1" fill="#f19c18" d="M 120.5,124.5 C 117.833,130.833 117.833,137.167 120.5,143.5C 114.158,143.666 107.825,143.5 101.5,143C 95.5333,139.608 94.0333,134.774 97,128.5C 98.214,126.951 99.714,125.785 101.5,125C 107.825,124.5 114.158,124.334 120.5,124.5 Z"/></g>
<g><path style="opacity:1" fill="#ce763d" d="M 136.5,171.5 C 133.167,171.5 129.833,171.5 126.5,171.5C 127.253,167.323 128.586,163.323 130.5,159.5C 134.167,158.167 137.833,158.167 141.5,159.5C 139.287,163.262 137.62,167.262 136.5,171.5 Z"/></g>
<g><path style="opacity:1" fill="#fbbb9a" d="M 359.5,171.5 C 290.5,171.5 221.5,171.5 152.5,171.5C 153.773,166.457 156.439,162.291 160.5,159C 224.167,158.333 287.833,158.333 351.5,159C 355.063,162.635 357.73,166.801 359.5,171.5 Z"/></g>
<g><path style="opacity:1" fill="#d0773e" d="M 385.5,171.5 C 382.167,171.5 378.833,171.5 375.5,171.5C 374.231,167.367 372.564,163.367 370.5,159.5C 374.045,158.209 377.545,158.209 381,159.5C 382.791,163.411 384.291,167.411 385.5,171.5 Z"/></g>
<g><path style="opacity:1" fill="#e1976c" d="M 126.5,171.5 C 129.833,171.5 133.167,171.5 136.5,171.5C 131.522,204.043 143.522,228.21 172.5,244C 182.48,245.796 191.813,244.129 200.5,239C 213.483,229.676 227.816,223.343 243.5,220C 257.899,218.391 271.899,220.057 285.5,225C 296.814,230.966 308.147,236.966 319.5,243C 330.336,246.796 340.336,245.13 349.5,238C 371.393,221.041 380.06,198.875 375.5,171.5C 378.833,171.5 382.167,171.5 385.5,171.5C 388.875,181.542 391.042,191.875 392,202.5C 392.24,218.897 391.573,235.23 390,251.5C 393.169,257.68 397.503,263.014 403,267.5C 403.167,268.333 403.333,269.167 403.5,270C 387.067,312.1 358.067,342.1 316.5,360C 247.012,384.751 186.846,370.585 136,317.5C 123.703,303.252 114.203,287.252 107.5,269.5C 110.484,266.015 113.651,262.682 117,259.5C 119.194,256.446 120.861,253.112 122,249.5C 122.107,241.13 121.44,232.796 120,224.5C 118.024,206.185 120.191,188.518 126.5,171.5 Z"/></g>
<g><path style="opacity:1" fill="#fdd1ba" d="M 152.5,171.5 C 221.5,171.5 290.5,171.5 359.5,171.5C 364.678,187.118 362.178,201.451 352,214.5C 347.833,218.667 343.667,222.833 339.5,227C 334.859,230.608 329.859,231.274 324.5,229C 311.337,220.418 297.337,213.418 282.5,208C 262.059,202.688 241.893,203.521 222,210.5C 210.625,215.436 199.792,221.269 189.5,228C 185.983,229.734 182.316,230.401 178.5,230C 163.362,221.853 153.862,209.353 150,192.5C 148.854,185.123 149.687,178.123 152.5,171.5 Z"/></g>
<g><path style="opacity:1" fill="#f9b998" d="M 105.5,178.5 C 106.5,178.5 107.5,178.5 108.5,178.5C 105.452,194.34 103.785,210.34 103.5,226.5C 86.6234,218.037 82.4567,205.37 91,188.5C 94.9775,183.774 99.8108,180.441 105.5,178.5 Z"/></g>
<g><path style="opacity:1" fill="#f8b998" d="M 403.5,179.5 C 417.13,181.3 424.463,189.133 425.5,203C 424.721,215.418 418.388,223.252 406.5,226.5C 408.262,210.647 407.262,194.981 403.5,179.5 Z"/></g>
<g><path style="opacity:1" fill="#060504" d="M 184.5,181.5 C 188.909,180.618 192.409,181.952 195,185.5C 195.667,192.167 195.667,198.833 195,205.5C 192.335,210.434 188.502,211.601 183.5,209C 182.107,207.829 181.273,206.329 181,204.5C 180.333,198.167 180.333,191.833 181,185.5C 182.376,184.295 183.542,182.962 184.5,181.5 Z"/></g>
<g><path style="opacity:1" fill="#0a0807" d="M 320.5,181.5 C 325.28,180.641 328.78,182.308 331,186.5C 331.667,192.5 331.667,198.5 331,204.5C 327.202,211.451 322.535,212.118 317,206.5C 316.333,199.5 316.333,192.5 317,185.5C 317.69,183.65 318.856,182.316 320.5,181.5 Z"/></g>
<g><path style="opacity:1" fill="#070402" d="M 240.5,231.5 C 244.819,230.799 248.486,231.966 251.5,235C 256.131,236.261 260.131,235.261 263.5,232C 271.791,230.045 275.291,233.212 274,241.5C 267.607,250.096 259.107,252.929 248.5,250C 241.617,247.805 237.783,243.305 237,236.5C 237.997,234.677 239.164,233.01 240.5,231.5 Z"/></g>
<g><path style="opacity:1" fill="#f5486c" d="M 184.5,395.5 C 176.804,393.484 169.804,390.15 163.5,385.5C 165.853,378.461 169.019,371.794 173,365.5C 176.434,367.935 180.1,369.935 184,371.5C 184.5,379.493 184.666,387.493 184.5,395.5 Z"/></g>
<g><path style="opacity:1" fill="#f6486d" d="M 348.5,386.5 C 341.892,389.487 335.225,392.487 328.5,395.5C 327.502,387.528 327.169,379.528 327.5,371.5C 331.256,369.112 335.256,367.612 339.5,367C 343.188,373.207 346.188,379.707 348.5,386.5 Z"/></g>
<g><path style="opacity:1" fill="#f4476b" d="M 151.5,369.5 C 152.376,369.369 153.043,369.702 153.5,370.5C 144.297,390.776 137.297,411.776 132.5,433.5C 121.833,427.833 111.167,422.167 100.5,416.5C 99.4173,415.635 99.2506,414.635 100,413.5C 113.062,393.931 130.229,379.264 151.5,369.5 Z"/></g>
<g><path style="opacity:1" fill="#f4466b" d="M 357.5,368.5 C 380.816,378.326 399.149,393.993 412.5,415.5C 401.459,422.186 390.125,428.019 378.5,433C 374.041,410.661 367.041,389.161 357.5,368.5 Z"/></g>
<g><path style="opacity:1" fill="#ecb961" d="M 220.5,406.5 C 213.423,405.154 206.423,403.487 199.5,401.5C 199.169,393.472 199.502,385.472 200.5,377.5C 206.769,380.357 213.269,382.357 220,383.5C 220.5,391.159 220.666,398.826 220.5,406.5 Z"/></g>
<g><path style="opacity:1" fill="#d9ac5b" d="M 310.5,378.5 C 311.492,385.982 311.825,393.648 311.5,401.5C 305.018,403.692 298.352,405.025 291.5,405.5C 291.5,435.833 291.5,466.167 291.5,496.5C 290.336,459.002 290.169,421.336 291,383.5C 297.459,381.737 303.959,380.07 310.5,378.5 Z"/></g>
<g><path style="opacity:1" fill="#d1d0d6" d="M 270.5,386.5 C 272.167,386.5 273.833,386.5 275.5,386.5C 275.5,393.833 275.5,401.167 275.5,408.5C 262.493,409.757 249.493,409.757 236.5,408.5C 236.828,419.679 236.495,430.679 235.5,441.5C 235.5,423.167 235.5,404.833 235.5,386.5C 247.167,386.5 258.833,386.5 270.5,386.5 Z"/></g>
<g><path style="opacity:1" fill="#fd879c" d="M 163.5,385.5 C 169.804,390.15 176.804,393.484 184.5,395.5C 184.5,429.167 184.5,462.833 184.5,496.5C 170.588,496.823 156.754,496.49 143,495.5C 141.822,457.232 148.655,420.565 163.5,385.5 Z"/></g>
<g><path style="opacity:1" fill="#f8849a" d="M 327.5,371.5 C 327.169,379.528 327.502,387.528 328.5,395.5C 335.225,392.487 341.892,389.487 348.5,386.5C 359.859,413.608 366.693,441.941 369,471.5C 369.667,479.5 369.667,487.5 369,495.5C 354.912,496.49 340.745,496.824 326.5,496.5C 326.168,454.663 326.501,412.997 327.5,371.5 Z"/></g>
<g><path style="opacity:1" fill="#7d703b" d="M 310.5,378.5 C 310.56,377.957 310.893,377.624 311.5,377.5C 312.831,417.331 312.831,456.998 311.5,496.5C 311.5,464.833 311.5,433.167 311.5,401.5C 311.825,393.648 311.492,385.982 310.5,378.5 Z"/></g>
<g><path style="opacity:1" fill="#f3e076" d="M 199.5,401.5 C 206.423,403.487 213.423,405.154 220.5,406.5C 220.333,418.838 220.5,431.171 221,443.5C 222.41,446.789 224.91,448.456 228.5,448.5C 228.5,453.5 228.5,458.5 228.5,463.5C 224.91,463.544 222.41,465.211 221,468.5C 220.5,477.827 220.334,487.161 220.5,496.5C 213.5,496.5 206.5,496.5 199.5,496.5C 199.5,464.833 199.5,433.167 199.5,401.5 Z"/></g>
<g><path style="opacity:1" fill="#f4e176" d="M 311.5,401.5 C 311.5,433.167 311.5,464.833 311.5,496.5C 304.833,496.5 298.167,496.5 291.5,496.5C 291.5,466.167 291.5,435.833 291.5,405.5C 298.352,405.025 305.018,403.692 311.5,401.5 Z"/></g>
<g><path style="opacity:1" fill="#eaeaea" d="M 275.5,408.5 C 275.5,437.833 275.5,467.167 275.5,496.5C 262.167,496.5 248.833,496.5 235.5,496.5C 235.666,486.828 235.5,477.161 235,467.5C 233.362,465.266 231.195,463.933 228.5,463.5C 228.5,458.5 228.5,453.5 228.5,448.5C 232.5,447.833 234.833,445.5 235.5,441.5C 236.495,430.679 236.828,419.679 236.5,408.5C 249.493,409.757 262.493,409.757 275.5,408.5 Z"/></g>
<g><path style="opacity:1" fill="#747475" d="M 270.5,386.5 C 272.265,385.539 274.265,385.205 276.5,385.5C 276.832,422.67 276.498,459.67 275.5,496.5C 275.5,467.167 275.5,437.833 275.5,408.5C 275.5,401.167 275.5,393.833 275.5,386.5C 273.833,386.5 272.167,386.5 270.5,386.5 Z"/></g>
<g><path style="opacity:1" fill="#f9ceb8" d="M 417.5,429.5 C 418.5,429.5 419.5,429.5 420.5,429.5C 424.558,438.608 424.392,447.608 420,456.5C 412.397,464.234 403.897,465.4 394.5,460C 390.607,456.61 387.273,452.777 384.5,448.5C 395.364,441.902 406.364,435.569 417.5,429.5 Z"/></g>
<g><path style="opacity:1" fill="#facfb8" d="M 91.5,429.5 C 103.381,434.774 115.048,440.607 126.5,447C 127.451,447.718 127.617,448.551 127,449.5C 123.067,455.434 117.9,459.934 111.5,463C 93.8363,463.662 86.3363,455.162 89,437.5C 89.9406,434.846 90.7739,432.179 91.5,429.5 Z"/></g>
</svg>
