<?xml version="1.0" encoding="UTF-8"?>
<!DOCTYPE svg PUBLIC "-//W3C//DTD SVG 1.1//EN" "http://www.w3.org/Graphics/SVG/1.1/DTD/svg11.dtd">
<svg xmlns="http://www.w3.org/2000/svg" version="1.1" width="512px" height="512px" style="shape-rendering:geometricPrecision; text-rendering:geometricPrecision; image-rendering:optimizeQuality; fill-rule:evenodd; clip-rule:evenodd" xmlns:xlink="http://www.w3.org/1999/xlink">
<g><path style="opacity:0.991" fill="#2f3233" d="M 231.5,-0.5 C 246.167,-0.5 260.833,-0.5 275.5,-0.5C 297.734,1.14546 318.734,7.31213 338.5,18C 358.253,30.3381 367.253,48.1714 365.5,71.5C 382.116,73.9507 391.616,83.6173 394,100.5C 395.993,112.425 397.326,124.425 398,136.5C 398.609,207.508 398.109,278.508 396.5,349.5C 377.227,346.312 358.227,341.979 339.5,336.5C 331.654,332.976 324.987,327.976 319.5,321.5C 317.038,317.409 314.705,313.243 312.5,309C 337.192,285.787 352.026,257.287 357,223.5C 358.47,222.733 359.97,222.067 361.5,221.5C 367.746,224.88 371.746,223.047 373.5,216C 373.481,214.167 372.815,212.667 371.5,211.5C 380.456,195.697 381.623,179.364 375,162.5C 372.149,157.816 367.983,155.482 362.5,155.5C 361.899,140.792 360.733,126.126 359,111.5C 358.215,104.643 356.882,97.9768 355,91.5C 352.215,96.6189 348.382,100.786 343.5,104C 328.955,111.13 313.621,113.463 297.5,111C 272.476,105.255 247.143,102.921 221.5,104C 196.793,105.275 175.959,114.775 159,132.5C 156.239,136.36 153.739,140.36 151.5,144.5C 149.12,147.762 148.12,151.429 148.5,155.5C 144.413,155.294 140.913,156.627 138,159.5C 135.196,163.443 133.196,167.777 132,172.5C 130.288,186.371 132.788,199.371 139.5,211.5C 136.192,220.198 139.192,223.865 148.5,222.5C 151.323,222.025 153.323,223.025 154.5,225.5C 160.258,258.356 174.925,286.356 198.5,309.5C 196.155,313.528 193.822,317.528 191.5,321.5C 186.013,327.976 179.346,332.976 171.5,336.5C 151.141,342.73 130.474,347.73 109.5,351.5C 108.008,271.829 108.175,192.163 110,112.5C 116.051,55.7873 146.551,19.9539 201.5,5C 211.552,2.66823 221.552,0.834899 231.5,-0.5 Z"/></g>
<g><path style="opacity:1" fill="#dbb48d" d="M 371.5,211.5 C 365.182,207.768 361.182,209.434 359.5,216.5C 359.437,218.514 360.103,220.181 361.5,221.5C 359.97,222.067 358.47,222.733 357,223.5C 352.026,257.287 337.192,285.787 312.5,309C 314.705,313.243 317.038,317.409 319.5,321.5C 319.211,333.402 317.545,345.069 314.5,356.5C 305.189,354.754 296.189,351.92 287.5,348C 281.638,343.959 276.305,339.459 271.5,334.5C 281.501,330.663 290.835,325.497 299.5,319C 287.085,325.75 273.752,330.25 259.5,332.5C 273.289,324.992 285.122,314.992 295,302.5C 320.047,271.714 333.38,236.381 335,196.5C 335.378,170.485 334.878,144.485 333.5,118.5C 325.586,120.261 317.586,120.761 309.5,120C 291.206,116.844 272.873,113.844 254.5,111C 223.786,106.477 195.453,112.477 169.5,129C 163.608,134.399 157.608,139.566 151.5,144.5C 153.739,140.36 156.239,136.36 159,132.5C 175.959,114.775 196.793,105.275 221.5,104C 247.143,102.921 272.476,105.255 297.5,111C 313.621,113.463 328.955,111.13 343.5,104C 348.382,100.786 352.215,96.6189 355,91.5C 356.882,97.9768 358.215,104.643 359,111.5C 360.733,126.126 361.899,140.792 362.5,155.5C 367.983,155.482 372.149,157.816 375,162.5C 381.623,179.364 380.456,195.697 371.5,211.5 Z"/></g>
<g><path style="opacity:1" fill="#e7c49d" d="M 259.5,332.5 C 240.039,332.124 222.373,326.124 206.5,314.5C 219.653,327.159 235.82,335.159 255,338.5C 260.535,337.241 266.035,335.908 271.5,334.5C 276.305,339.459 281.638,343.959 287.5,348C 296.189,351.92 305.189,354.754 314.5,356.5C 301.595,407.212 282.595,455.546 257.5,501.5C 256.167,504.167 254.833,504.167 253.5,501.5C 230.983,460.127 213.149,416.794 200,371.5C 196.189,354.991 193.356,338.325 191.5,321.5C 193.822,317.528 196.155,313.528 198.5,309.5C 174.925,286.356 160.258,258.356 154.5,225.5C 153.323,223.025 151.323,222.025 148.5,222.5C 151.811,219.293 152.311,215.626 150,211.5C 146.432,208.868 142.932,208.868 139.5,211.5C 132.788,199.371 130.288,186.371 132,172.5C 133.196,167.777 135.196,163.443 138,159.5C 140.913,156.627 144.413,155.294 148.5,155.5C 148.12,151.429 149.12,147.762 151.5,144.5C 157.608,139.566 163.608,134.399 169.5,129C 195.453,112.477 223.786,106.477 254.5,111C 272.873,113.844 291.206,116.844 309.5,120C 317.586,120.761 325.586,120.261 333.5,118.5C 334.878,144.485 335.378,170.485 335,196.5C 333.38,236.381 320.047,271.714 295,302.5C 285.122,314.992 273.289,324.992 259.5,332.5 Z"/></g>
<g><path style="opacity:1" fill="#c67b30" d="M 148.5,222.5 C 139.192,223.865 136.192,220.198 139.5,211.5C 142.932,208.868 146.432,208.868 150,211.5C 152.311,215.626 151.811,219.293 148.5,222.5 Z"/></g>
<g><path style="opacity:1" fill="#c77b30" d="M 371.5,211.5 C 372.815,212.667 373.481,214.167 373.5,216C 371.746,223.047 367.746,224.88 361.5,221.5C 360.103,220.181 359.437,218.514 359.5,216.5C 361.182,209.434 365.182,207.768 371.5,211.5 Z"/></g>
<g><path style="opacity:1" fill="#cda382" d="M 259.5,332.5 C 273.752,330.25 287.085,325.75 299.5,319C 290.835,325.497 281.501,330.663 271.5,334.5C 266.035,335.908 260.535,337.241 255,338.5C 235.82,335.159 219.653,327.159 206.5,314.5C 222.373,326.124 240.039,332.124 259.5,332.5 Z"/></g>
<g><path style="opacity:1" fill="#ded9d1" d="M 319.5,321.5 C 324.987,327.976 331.654,332.976 339.5,336.5C 350.838,346.839 361.505,357.839 371.5,369.5C 352.673,364.534 333.673,360.201 314.5,356.5C 317.545,345.069 319.211,333.402 319.5,321.5 Z"/></g>
<g><path style="opacity:1" fill="#e9e3da" d="M 191.5,321.5 C 193.356,338.325 196.189,354.991 200,371.5C 213.149,416.794 230.983,460.127 253.5,501.5C 250.5,498.833 247.5,496.167 244.5,493.5C 221.673,469.84 198.34,446.673 174.5,424C 149.379,429.029 124.379,434.863 99.5,441.5C 97.4012,442.231 95.4012,442.231 93.5,441.5C 112.465,401.221 138.465,366.221 171.5,336.5C 179.346,332.976 186.013,327.976 191.5,321.5 Z"/></g>
<g><path style="opacity:1" fill="#393c3d" d="M 339.5,336.5 C 358.227,341.979 377.227,346.312 396.5,349.5C 418.037,353.6 437.704,362.1 455.5,375C 464.091,382.924 470.257,392.424 474,403.5C 481.904,430.938 486.07,458.938 486.5,487.5C 470.257,490.707 453.924,493.374 437.5,495.5C 437.371,476.317 435.538,457.317 432,438.5C 426.574,402.574 406.408,379.574 371.5,369.5C 361.505,357.839 350.838,346.839 339.5,336.5 Z"/></g>
<g><path style="opacity:0.99" fill="#515151" d="M 171.5,336.5 C 138.465,366.221 112.465,401.221 93.5,441.5C 95.4012,442.231 97.4012,442.231 99.5,441.5C 100.097,442.139 100.93,442.472 102,442.5C 125.467,439.046 148.967,436.212 172.5,434C 196.612,453.81 220.445,473.977 244,494.5C 244.399,494.272 244.565,493.938 244.5,493.5C 247.5,496.167 250.5,498.833 253.5,501.5C 254.833,504.167 256.167,504.167 257.5,501.5C 261.5,497.833 265.5,494.167 269.5,490.5C 269.369,491.239 269.536,491.906 270,492.5C 292.74,472.882 315.574,453.382 338.5,434C 360.009,436.042 381.509,438.542 403,441.5C 404.707,441.492 406.207,441.158 407.5,440.5C 410.741,442.149 414.074,442.482 417.5,441.5C 405.151,415.438 389.817,391.438 371.5,369.5C 406.408,379.574 426.574,402.574 432,438.5C 435.538,457.317 437.371,476.317 437.5,495.5C 389.661,503.216 341.661,508.549 293.5,511.5C 266.5,511.5 239.5,511.5 212.5,511.5C 149.455,507.543 86.7879,499.543 24.5,487.5C 24.9296,458.938 29.0962,430.938 37,403.5C 42.7892,388.046 52.6225,375.88 66.5,367C 79.9552,359.349 94.2885,354.182 109.5,351.5C 130.474,347.73 151.141,342.73 171.5,336.5 Z"/></g>
<g><path style="opacity:1" fill="#e9e3da" d="M 314.5,356.5 C 333.673,360.201 352.673,364.534 371.5,369.5C 389.817,391.438 405.151,415.438 417.5,441.5C 414.074,442.482 410.741,442.149 407.5,440.5C 383.815,434.828 360.149,429.328 336.5,424C 313.66,445.673 291.327,467.84 269.5,490.5C 265.5,494.167 261.5,497.833 257.5,501.5C 282.595,455.546 301.595,407.212 314.5,356.5 Z"/></g>
<g><path style="opacity:1" fill="#3d4040" d="M 407.5,440.5 C 406.207,441.158 404.707,441.492 403,441.5C 381.509,438.542 360.009,436.042 338.5,434C 315.574,453.382 292.74,472.882 270,492.5C 269.536,491.906 269.369,491.239 269.5,490.5C 291.327,467.84 313.66,445.673 336.5,424C 360.149,429.328 383.815,434.828 407.5,440.5 Z"/></g>
<g><path style="opacity:1" fill="#3e4141" d="M 244.5,493.5 C 244.565,493.938 244.399,494.272 244,494.5C 220.445,473.977 196.612,453.81 172.5,434C 148.967,436.212 125.467,439.046 102,442.5C 100.93,442.472 100.097,442.139 99.5,441.5C 124.379,434.863 149.379,429.029 174.5,424C 198.34,446.673 221.673,469.84 244.5,493.5 Z"/></g>
</svg>
