<?xml version="1.0" encoding="UTF-8"?>
<!DOCTYPE svg PUBLIC "-//W3C//DTD SVG 1.1//EN" "http://www.w3.org/Graphics/SVG/1.1/DTD/svg11.dtd">
<svg xmlns="http://www.w3.org/2000/svg" version="1.1" width="512px" height="512px" style="shape-rendering:geometricPrecision; text-rendering:geometricPrecision; image-rendering:optimizeQuality; fill-rule:evenodd; clip-rule:evenodd" xmlns:xlink="http://www.w3.org/1999/xlink">
<g><path style="opacity:0.993" fill="#6b4627" d="M 229.5,-0.5 C 238.167,-0.5 246.833,-0.5 255.5,-0.5C 263.42,1.11054 271.253,3.44388 279,6.5C 303.766,3.08861 324.933,10.2553 342.5,28C 354.583,41.3203 363.75,56.487 370,73.5C 380.963,106.274 387.296,139.941 389,174.5C 391.295,204.539 390.961,234.539 388,264.5C 384.64,284.581 379.64,304.247 373,323.5C 371.554,330.446 371.721,337.446 373.5,344.5C 372.903,344.735 372.57,345.235 372.5,346C 374.897,355.285 377.231,364.451 379.5,373.5C 384.908,405.271 386.908,437.271 385.5,469.5C 383.651,480.775 381.984,492.108 380.5,503.5C 361.49,505.798 342.49,507.798 323.5,509.5C 321.052,508.527 318.385,508.194 315.5,508.5C 315.5,506.167 315.5,503.833 315.5,501.5C 315.821,495.974 315.488,490.64 314.5,485.5C 314.656,471.722 313.489,458.056 311,444.5C 307.481,430.126 302.814,416.126 297,402.5C 295.71,394.198 295.377,385.865 296,377.5C 297.803,369.592 300.303,361.925 303.5,354.5C 309.853,343.455 314.853,331.789 318.5,319.5C 319.558,318.4 320.392,317.066 321,315.5C 323.152,308.884 324.985,302.218 326.5,295.5C 335.204,261.209 337.871,226.542 334.5,191.5C 332.371,164.267 322.538,140.267 305,119.5C 296.435,110.265 287.268,101.765 277.5,94C 274.634,92.5432 271.634,92.2099 268.5,93C 211.791,111.545 181.957,150.712 179,210.5C 176.582,241.268 180.082,271.268 189.5,300.5C 190.583,306.251 191.916,311.918 193.5,317.5C 199.05,336.26 199.883,355.26 196,374.5C 186,410.334 174.5,445.668 161.5,480.5C 158.637,489.091 155.97,497.758 153.5,506.5C 148.091,506.094 142.758,505.427 137.5,504.5C 132.402,503.043 127.069,502.376 121.5,502.5C 118.721,502.721 116.054,502.388 113.5,501.5C 111.735,500.539 109.735,500.205 107.5,500.5C 107.5,499.167 107.5,497.833 107.5,496.5C 110.465,470.674 114.465,445.007 119.5,419.5C 125.294,395.613 128.961,371.28 130.5,346.5C 130.665,342.818 130.499,339.152 130,335.5C 126.738,339.024 124.238,343.024 122.5,347.5C 121.833,347.5 121.5,347.833 121.5,348.5C 115.737,359.117 111.737,370.45 109.5,382.5C 107.116,390.533 105.783,398.866 105.5,407.5C 104.509,413.979 104.176,420.646 104.5,427.5C 105.134,433.496 105.3,439.496 105,445.5C 104.243,443.685 103.41,442.019 102.5,440.5C 93.5538,411.319 93.2205,381.986 101.5,352.5C 105.159,339.022 109.326,325.689 114,312.5C 116.326,298.772 117.493,284.939 117.5,271C 115.895,231.78 116.728,192.614 120,153.5C 122.346,126.433 128.013,100.1 137,74.5C 148.564,44.2692 169.064,22.4359 198.5,9C 208.553,4.47897 218.886,1.31231 229.5,-0.5 Z M 130.5,346.5 C 128.435,346.517 126.435,346.85 124.5,347.5C 123.833,347.5 123.167,347.5 122.5,347.5C 124.238,343.024 126.738,339.024 130,335.5C 130.499,339.152 130.665,342.818 130.5,346.5 Z"/></g>
<g><path style="opacity:1" fill="#e7c49d" d="M 334.5,191.5 C 333.498,245.662 312.498,290.162 271.5,325C 266.899,327.798 262.232,330.298 257.5,332.5C 238.298,331.23 220.965,324.897 205.5,313.5C 204.707,314.355 205.04,315.189 206.5,316C 220.789,327.394 236.956,334.561 255,337.5C 260.598,337.023 266.098,336.023 271.5,334.5C 275.973,339.126 280.973,343.293 286.5,347C 292.257,349.55 297.923,352.05 303.5,354.5C 300.303,361.925 297.803,369.592 296,377.5C 295.377,385.865 295.71,394.198 297,402.5C 302.814,416.126 307.481,430.126 311,444.5C 313.489,458.056 314.656,471.722 314.5,485.5C 263.233,491.988 212.233,490.322 161.5,480.5C 174.5,445.668 186,410.334 196,374.5C 199.883,355.26 199.05,336.26 193.5,317.5C 195.642,315.235 197.309,312.568 198.5,309.5C 195.812,306.146 192.812,303.146 189.5,300.5C 180.082,271.268 176.582,241.268 179,210.5C 181.957,150.712 211.791,111.545 268.5,93C 271.634,92.2099 274.634,92.5432 277.5,94C 287.268,101.765 296.435,110.265 305,119.5C 322.538,140.267 332.371,164.267 334.5,191.5 Z"/></g>
<g><path style="opacity:1" fill="#dcb48d" d="M 334.5,191.5 C 337.871,226.542 335.204,261.209 326.5,295.5C 321.702,299.797 317.035,304.297 312.5,309C 314.385,312.609 316.385,316.109 318.5,319.5C 314.853,331.789 309.853,343.455 303.5,354.5C 297.923,352.05 292.257,349.55 286.5,347C 280.973,343.293 275.973,339.126 271.5,334.5C 281.011,330.742 290.011,325.909 298.5,320C 299.696,319.346 299.696,318.846 298.5,318.5C 285.8,325.956 272.134,330.622 257.5,332.5C 262.232,330.298 266.899,327.798 271.5,325C 312.498,290.162 333.498,245.662 334.5,191.5 Z"/></g>
<g><path style="opacity:1" fill="#4e3727" d="M 326.5,295.5 C 324.985,302.218 323.152,308.884 321,315.5C 320.392,317.066 319.558,318.4 318.5,319.5C 316.385,316.109 314.385,312.609 312.5,309C 317.035,304.297 321.702,299.797 326.5,295.5 Z"/></g>
<g><path style="opacity:1" fill="#503928" d="M 189.5,300.5 C 192.812,303.146 195.812,306.146 198.5,309.5C 197.309,312.568 195.642,315.235 193.5,317.5C 191.916,311.918 190.583,306.251 189.5,300.5 Z"/></g>
<g><path style="opacity:1" fill="#cea483" d="M 257.5,332.5 C 272.134,330.622 285.8,325.956 298.5,318.5C 299.696,318.846 299.696,319.346 298.5,320C 290.011,325.909 281.011,330.742 271.5,334.5C 266.098,336.023 260.598,337.023 255,337.5C 236.956,334.561 220.789,327.394 206.5,316C 205.04,315.189 204.707,314.355 205.5,313.5C 220.965,324.897 238.298,331.23 257.5,332.5 Z"/></g>
<g><path style="opacity:1" fill="#dab28b" d="M 373.5,344.5 C 377.373,345.134 381.039,346.134 384.5,347.5C 384.56,356.513 384.893,365.513 385.5,374.5C 383.559,374.131 381.725,373.464 380,372.5C 379.601,372.728 379.435,373.062 379.5,373.5C 377.231,364.451 374.897,355.285 372.5,346C 372.57,345.235 372.903,344.735 373.5,344.5 Z"/></g>
<g><path style="opacity:0.987" fill="#e4bf99" d="M 130.5,346.5 C 128.961,371.28 125.294,395.613 119.5,419.5C 121.75,401.914 123.083,384.248 123.5,366.5C 124.49,360.355 124.823,354.022 124.5,347.5C 126.435,346.85 128.435,346.517 130.5,346.5 Z"/></g>
<g><path style="opacity:1" fill="#df615c" d="M 121.5,348.5 C 123.453,354.074 124.12,360.074 123.5,366.5C 123.083,384.248 121.75,401.914 119.5,419.5C 114.465,445.007 110.465,470.674 107.5,496.5C 106.566,497.568 106.232,498.901 106.5,500.5C 79.2736,497.563 52.2736,493.23 25.5,487.5C 25.1667,485.833 24.8333,484.167 24.5,482.5C 25.3677,470.15 26.3677,457.816 27.5,445.5C 50.755,453.777 74.755,458.443 99.5,459.5C 100.371,453.146 101.371,446.813 102.5,440.5C 103.41,442.019 104.243,443.685 105,445.5C 105.3,439.496 105.134,433.496 104.5,427.5C 105.344,424.655 106.01,421.655 106.5,418.5C 107.907,406.538 108.907,394.538 109.5,382.5C 111.737,370.45 115.737,359.117 121.5,348.5 Z"/></g>
<g><path style="opacity:1" fill="#d15a53" d="M 384.5,347.5 C 389.444,347.754 394.111,348.754 398.5,350.5C 398.362,360.854 398.695,371.188 399.5,381.5C 395.038,379.043 390.372,377.043 385.5,375.5C 385.5,375.167 385.5,374.833 385.5,374.5C 384.893,365.513 384.56,356.513 384.5,347.5 Z"/></g>
<g><path style="opacity:1" fill="#ddb58e" d="M 398.5,350.5 C 424.796,354.063 446.963,365.397 465,384.5C 469.656,390.837 472.989,397.837 475,405.5C 478.629,418.348 481.463,431.348 483.5,444.5C 467.963,450.263 451.963,454.263 435.5,456.5C 432.61,440.942 428.777,425.608 424,410.5C 418.368,398.871 410.201,389.538 399.5,382.5C 399.5,382.167 399.5,381.833 399.5,381.5C 398.695,371.188 398.362,360.854 398.5,350.5 Z"/></g>
<g><path style="opacity:0.986" fill="#e7c49d" d="M 101.5,352.5 C 93.2205,381.986 93.5538,411.319 102.5,440.5C 101.371,446.813 100.371,453.146 99.5,459.5C 74.755,458.443 50.755,453.777 27.5,445.5C 29.9391,428.077 34.1058,411.077 40,394.5C 50.0057,376.564 64.839,364.397 84.5,358C 90.1692,356.054 95.8359,354.221 101.5,352.5 Z"/></g>
<g><path style="opacity:1" fill="#e5a589" d="M 121.5,348.5 C 121.5,347.833 121.833,347.5 122.5,347.5C 123.167,347.5 123.833,347.5 124.5,347.5C 124.823,354.022 124.49,360.355 123.5,366.5C 124.12,360.074 123.453,354.074 121.5,348.5 Z"/></g>
<g><path style="opacity:1" fill="#e4be98" d="M 385.5,374.5 C 385.5,374.833 385.5,375.167 385.5,375.5C 386.867,404.637 390.534,433.471 396.5,462C 396.441,463.436 396.108,464.769 395.5,466C 392.252,467.46 388.919,468.626 385.5,469.5C 386.908,437.271 384.908,405.271 379.5,373.5C 379.435,373.062 379.601,372.728 380,372.5C 381.725,373.464 383.559,374.131 385.5,374.5 Z"/></g>
<g><path style="opacity:1" fill="#e0615d" d="M 385.5,375.5 C 390.372,377.043 395.038,379.043 399.5,381.5C 399.5,381.833 399.5,382.167 399.5,382.5C 400.948,408.417 404.281,434.084 409.5,459.5C 418.224,458.628 426.891,457.628 435.5,456.5C 451.963,454.263 467.963,450.263 483.5,444.5C 484.81,458.81 485.81,473.143 486.5,487.5C 451.383,494.231 416.05,499.564 380.5,503.5C 381.984,492.108 383.651,480.775 385.5,469.5C 388.919,468.626 392.252,467.46 395.5,466C 396.108,464.769 396.441,463.436 396.5,462C 390.534,433.471 386.867,404.637 385.5,375.5 Z"/></g>
<g><path style="opacity:1" fill="#e7c49d" d="M 399.5,382.5 C 410.201,389.538 418.368,398.871 424,410.5C 428.777,425.608 432.61,440.942 435.5,456.5C 426.891,457.628 418.224,458.628 409.5,459.5C 404.281,434.084 400.948,408.417 399.5,382.5 Z"/></g>
<g><path style="opacity:1" fill="#deb590" d="M 109.5,382.5 C 108.907,394.538 107.907,406.538 106.5,418.5C 105.518,415.038 105.185,411.371 105.5,407.5C 105.783,398.866 107.116,390.533 109.5,382.5 Z"/></g>
<g><path style="opacity:1" fill="#bd9572" d="M 105.5,407.5 C 105.185,411.371 105.518,415.038 106.5,418.5C 106.01,421.655 105.344,424.655 104.5,427.5C 104.176,420.646 104.509,413.979 105.5,407.5 Z"/></g>
<g><path style="opacity:1" fill="#df615c" d="M 161.5,480.5 C 212.233,490.322 263.233,491.988 314.5,485.5C 315.488,490.64 315.821,495.974 315.5,501.5C 314.527,503.948 314.194,506.615 314.5,509.5C 307.337,509.964 300.337,510.631 293.5,511.5C 266.5,511.5 239.5,511.5 212.5,511.5C 192.974,509.885 173.308,508.218 153.5,506.5C 155.97,497.758 158.637,489.091 161.5,480.5 Z"/></g>
<g><path style="opacity:0.596" fill="#9f5d45" d="M 107.5,496.5 C 107.5,497.833 107.5,499.167 107.5,500.5C 109.735,500.205 111.735,500.539 113.5,501.5C 110.941,501.802 108.607,501.468 106.5,500.5C 106.232,498.901 106.566,497.568 107.5,496.5 Z"/></g>
<g><path style="opacity:0.996" fill="#a9654e" d="M 121.5,502.5 C 127.069,502.376 132.402,503.043 137.5,504.5C 131.949,504.473 126.616,503.806 121.5,502.5 Z"/></g>
<g><path style="opacity:0.949" fill="#93553d" d="M 315.5,501.5 C 315.5,503.833 315.5,506.167 315.5,508.5C 318.385,508.194 321.052,508.527 323.5,509.5C 320.5,509.5 317.5,509.5 314.5,509.5C 314.194,506.615 314.527,503.948 315.5,501.5 Z"/></g>
</svg>
