<?xml version="1.0" encoding="UTF-8"?>
<!DOCTYPE svg PUBLIC "-//W3C//DTD SVG 1.1//EN" "http://www.w3.org/Graphics/SVG/1.1/DTD/svg11.dtd">
<svg xmlns="http://www.w3.org/2000/svg" version="1.1" width="512px" height="512px" style="shape-rendering:geometricPrecision; text-rendering:geometricPrecision; image-rendering:optimizeQuality; fill-rule:evenodd; clip-rule:evenodd" xmlns:xlink="http://www.w3.org/1999/xlink">
<g><path style="opacity:0.987" fill="#2f3233" d="M 234.5,-0.5 C 248.167,-0.5 261.833,-0.5 275.5,-0.5C 294.852,1.17246 313.519,6.0058 331.5,14C 349.212,22.6113 360.379,36.4446 365,55.5C 365.499,60.4889 365.666,65.4889 365.5,70.5C 375.368,69.8439 383.202,73.5105 389,81.5C 397.575,95.2253 402.575,110.225 404,126.5C 408.79,185.795 391.79,237.795 353,282.5C 341.779,294.238 328.613,302.905 313.5,308.5C 337.474,285.223 351.974,256.889 357,223.5C 358.47,222.733 359.97,222.067 361.5,221.5C 367.746,224.88 371.746,223.047 373.5,216C 373.481,214.167 372.815,212.667 371.5,211.5C 380.456,195.697 381.623,179.364 375,162.5C 372.149,157.816 367.983,155.482 362.5,155.5C 361.97,133.517 359.47,111.85 355,90.5C 347.479,99.1848 337.979,104.685 326.5,107C 318.049,108.346 309.549,109.18 301,109.5C 274.591,105.818 249.091,108.984 224.5,119C 201.161,130.672 184.328,148.506 174,172.5C 163.682,198.73 159.849,225.73 162.5,253.5C 162.5,254.833 162.5,256.167 162.5,257.5C 162.5,258.167 162.833,258.5 163.5,258.5C 163.5,259.167 163.5,259.833 163.5,260.5C 164.735,272.089 166.902,283.422 170,294.5C 111.386,247.327 91.0527,186.994 109,113.5C 120.331,69.6013 145.497,36.4346 184.5,14C 200.566,6.65481 217.233,1.82147 234.5,-0.5 Z"/></g>
<g><path style="opacity:1" fill="#dbb38d" d="M 371.5,211.5 C 365.182,207.768 361.182,209.434 359.5,216.5C 359.437,218.514 360.103,220.181 361.5,221.5C 359.97,222.067 358.47,222.733 357,223.5C 351.974,256.889 337.474,285.223 313.5,308.5C 318.379,321.714 327.379,331.048 340.5,336.5C 339.618,340.909 340.952,344.409 344.5,347C 336.91,349.869 335.577,354.536 340.5,361C 339.906,361.464 339.239,361.631 338.5,361.5C 321.839,358.612 305.505,354.445 289.5,349C 282.69,345.007 276.69,340.174 271.5,334.5C 281.501,330.663 290.835,325.497 299.5,319C 293.642,321.587 287.642,324.254 281.5,327C 274.39,329.778 267.056,331.611 259.5,332.5C 273.289,324.992 285.122,314.992 295,302.5C 320.047,271.714 333.38,236.381 335,196.5C 335.589,169.123 334.756,141.79 332.5,114.5C 326.097,115.932 319.597,116.598 313,116.5C 292.459,113.941 271.959,114.108 251.5,117C 223.188,122.017 201.354,136.517 186,160.5C 170.373,189.45 162.539,220.45 162.5,253.5C 159.849,225.73 163.682,198.73 174,172.5C 184.328,148.506 201.161,130.672 224.5,119C 249.091,108.984 274.591,105.818 301,109.5C 309.549,109.18 318.049,108.346 326.5,107C 337.979,104.685 347.479,99.1848 355,90.5C 359.47,111.85 361.97,133.517 362.5,155.5C 367.983,155.482 372.149,157.816 375,162.5C 381.623,179.364 380.456,195.697 371.5,211.5 Z"/></g>
<g><path style="opacity:0.998" fill="#e7c49e" d="M 259.5,332.5 C 240.132,332.154 222.465,326.154 206.5,314.5C 219.653,327.159 235.82,335.159 255,338.5C 260.535,337.241 266.035,335.908 271.5,334.5C 276.69,340.174 282.69,345.007 289.5,349C 305.505,354.445 321.839,358.612 338.5,361.5C 332.288,365.843 331.954,370.676 337.5,376C 329.536,377.595 327.536,381.928 331.5,389C 323.721,389.939 321.055,394.106 323.5,401.5C 315.491,402.515 312.824,406.848 315.5,414.5C 312.851,414.08 310.184,414.58 307.5,416C 304.084,419.469 303.75,423.136 306.5,427C 298.595,426.073 294.595,429.573 294.5,437.5C 287.003,435.655 283.336,438.655 283.5,446.5C 274.761,445.408 270.928,449.075 272,457.5C 267.636,454.341 263.969,455.008 261,459.5C 260.814,461.9 260.314,464.234 259.5,466.5C 256.634,465.205 253.801,465.205 251,466.5C 251.765,460.273 249.099,456.606 243,455.5C 241.289,455.439 239.956,456.106 239,457.5C 240.072,449.075 236.239,445.408 227.5,446.5C 227.603,438.434 223.769,435.434 216,437.5C 216.188,429.347 212.355,425.847 204.5,427C 207.673,422.067 206.673,418.067 201.5,415C 199.102,414.626 196.769,414.626 194.5,415C 198.235,407.026 195.568,402.693 186.5,402C 190.446,394.562 188.113,390.229 179.5,389C 183.469,381.958 181.469,377.625 173.5,376C 179.398,369.729 178.398,364.729 170.5,361C 175.423,354.536 174.09,349.869 166.5,347C 169.87,344.303 171.204,340.803 170.5,336.5C 182.961,331.206 191.961,322.372 197.5,310C 183.051,295.589 171.718,279.089 163.5,260.5C 163.5,259.833 163.5,259.167 163.5,258.5C 162.833,258.5 162.5,258.167 162.5,257.5C 162.5,256.167 162.5,254.833 162.5,253.5C 162.539,220.45 170.373,189.45 186,160.5C 201.354,136.517 223.188,122.017 251.5,117C 271.959,114.108 292.459,113.941 313,116.5C 319.597,116.598 326.097,115.932 332.5,114.5C 334.756,141.79 335.589,169.123 335,196.5C 333.38,236.381 320.047,271.714 295,302.5C 285.122,314.992 273.289,324.992 259.5,332.5 Z"/></g>
<g><path style="opacity:1" fill="#e4ded5" d="M 371.5,211.5 C 372.815,212.667 373.481,214.167 373.5,216C 371.746,223.047 367.746,224.88 361.5,221.5C 360.103,220.181 359.437,218.514 359.5,216.5C 361.182,209.434 365.182,207.768 371.5,211.5 Z"/></g>
<g><path style="opacity:1" fill="#cda382" d="M 259.5,332.5 C 267.056,331.611 274.39,329.778 281.5,327C 287.642,324.254 293.642,321.587 299.5,319C 290.835,325.497 281.501,330.663 271.5,334.5C 266.035,335.908 260.535,337.241 255,338.5C 235.82,335.159 219.653,327.159 206.5,314.5C 222.465,326.154 240.132,332.154 259.5,332.5 Z"/></g>
<g><path style="opacity:0.993" fill="#e7c49d" d="M 155.5,339.5 C 155.8,343.97 158.134,346.803 162.5,348C 157.574,351.912 157.241,356.245 161.5,361C 162.833,361.667 164.167,362.333 165.5,363C 160.35,370.101 162.017,374.768 170.5,377C 166.039,380.143 165.372,383.977 168.5,388.5C 170.295,390.703 172.629,391.869 175.5,392C 171.897,399.941 174.564,404.441 183.5,405.5C 180.937,409.143 181.27,412.643 184.5,416C 187.43,417.659 190.43,417.992 193.5,417C 189.471,425.91 192.471,430.244 202.5,430C 199.487,434.249 200.153,437.916 204.5,441C 207.146,441.497 209.813,441.664 212.5,441.5C 212.386,449.4 216.052,452.4 223.5,450.5C 223.743,459.266 227.91,462.266 236,459.5C 234.993,468.324 238.827,471.658 247.5,469.5C 246.949,475.025 249.449,478.691 255,480.5C 261.099,479.394 263.765,475.727 263,469.5C 271.731,472.114 275.731,468.78 275,459.5C 283.108,462.105 287.108,459.105 287,450.5C 294.72,452.622 298.553,449.622 298.5,441.5C 307.81,442.696 311.143,438.863 308.5,430C 316.762,430.247 320.095,426.414 318.5,418.5C 327.078,417.933 330.078,413.6 327.5,405.5C 336.135,404.539 338.802,400.205 335.5,392.5C 342.722,390.71 345.222,386.377 343,379.5C 342.097,378.299 340.931,377.465 339.5,377C 348.276,375.743 350.609,371.243 346.5,363.5C 368,366.94 387.667,374.773 405.5,387C 415.091,394.923 421.925,404.757 426,416.5C 433.954,442.227 437.788,468.56 437.5,495.5C 428.942,497.294 420.275,498.628 411.5,499.5C 417.428,464.93 402.928,448.93 368,451.5C 338.302,452.066 310.469,459.566 284.5,474C 276.5,479 268.5,484 260.5,489C 258.722,489.704 256.888,490.204 255,490.5C 241.641,482.9 228.141,475.4 214.5,468C 186.16,455.332 156.493,449.999 125.5,452C 111.652,453.643 103.152,461.143 100,474.5C 99.8294,483.01 99.3294,491.343 98.5,499.5C 73.6869,496.404 49.0202,492.404 24.5,487.5C 24.8076,455.988 29.9742,425.321 40,395.5C 50.2805,377.232 65.4472,364.732 85.5,358C 107.554,351.403 129.888,345.903 152.5,341.5C 153.739,341.058 154.739,340.391 155.5,339.5 Z"/></g>
<g><path style="opacity:1" fill="#ddb58e" d="M 355.5,340.5 C 379.038,345.384 402.371,351.218 425.5,358C 457.703,369.548 475.869,392.382 480,426.5C 483.311,446.716 485.478,467.049 486.5,487.5C 470.257,490.707 453.924,493.374 437.5,495.5C 437.788,468.56 433.954,442.227 426,416.5C 421.925,404.757 415.091,394.923 405.5,387C 387.667,374.773 368,366.94 346.5,363.5C 346.062,363.565 345.728,363.399 345.5,363C 353.398,359.271 354.398,354.271 348.5,348C 352.312,346.872 354.646,344.372 355.5,340.5 Z"/></g>
<g><path style="opacity:1" fill="#e9e3d9" d="M 170.5,336.5 C 171.204,340.803 169.87,344.303 166.5,347C 174.09,349.869 175.423,354.536 170.5,361C 178.398,364.729 179.398,369.729 173.5,376C 181.469,377.625 183.469,381.958 179.5,389C 188.113,390.229 190.446,394.562 186.5,402C 195.568,402.693 198.235,407.026 194.5,415C 196.769,414.626 199.102,414.626 201.5,415C 206.673,418.067 207.673,422.067 204.5,427C 212.355,425.847 216.188,429.347 216,437.5C 223.769,435.434 227.603,438.434 227.5,446.5C 236.239,445.408 240.072,449.075 239,457.5C 239.956,456.106 241.289,455.439 243,455.5C 249.099,456.606 251.765,460.273 251,466.5C 253.801,465.205 256.634,465.205 259.5,466.5C 260.314,464.234 260.814,461.9 261,459.5C 263.969,455.008 267.636,454.341 272,457.5C 270.928,449.075 274.761,445.408 283.5,446.5C 283.336,438.655 287.003,435.655 294.5,437.5C 294.595,429.573 298.595,426.073 306.5,427C 303.75,423.136 304.084,419.469 307.5,416C 310.184,414.58 312.851,414.08 315.5,414.5C 312.824,406.848 315.491,402.515 323.5,401.5C 321.055,394.106 323.721,389.939 331.5,389C 327.536,381.928 329.536,377.595 337.5,376C 331.954,370.676 332.288,365.843 338.5,361.5C 339.239,361.631 339.906,361.464 340.5,361C 335.577,354.536 336.91,349.869 344.5,347C 340.952,344.409 339.618,340.909 340.5,336.5C 344.323,331.055 348.823,330.389 354,334.5C 355.128,336.345 355.628,338.345 355.5,340.5C 354.646,344.372 352.312,346.872 348.5,348C 354.398,354.271 353.398,359.271 345.5,363C 345.728,363.399 346.062,363.565 346.5,363.5C 350.609,371.243 348.276,375.743 339.5,377C 340.931,377.465 342.097,378.299 343,379.5C 345.222,386.377 342.722,390.71 335.5,392.5C 338.802,400.205 336.135,404.539 327.5,405.5C 330.078,413.6 327.078,417.933 318.5,418.5C 320.095,426.414 316.762,430.247 308.5,430C 311.143,438.863 307.81,442.696 298.5,441.5C 298.553,449.622 294.72,452.622 287,450.5C 287.108,459.105 283.108,462.105 275,459.5C 275.731,468.78 271.731,472.114 263,469.5C 263.765,475.727 261.099,479.394 255,480.5C 249.449,478.691 246.949,475.025 247.5,469.5C 238.827,471.658 234.993,468.324 236,459.5C 227.91,462.266 223.743,459.266 223.5,450.5C 216.052,452.4 212.386,449.4 212.5,441.5C 209.813,441.664 207.146,441.497 204.5,441C 200.153,437.916 199.487,434.249 202.5,430C 192.471,430.244 189.471,425.91 193.5,417C 190.43,417.992 187.43,417.659 184.5,416C 181.27,412.643 180.937,409.143 183.5,405.5C 174.564,404.441 171.897,399.941 175.5,392C 172.629,391.869 170.295,390.703 168.5,388.5C 165.372,383.977 166.039,380.143 170.5,377C 162.017,374.768 160.35,370.101 165.5,363C 164.167,362.333 162.833,361.667 161.5,361C 157.241,356.245 157.574,351.912 162.5,348C 158.134,346.803 155.8,343.97 155.5,339.5C 156.763,332.564 160.763,330.397 167.5,333C 168.71,334.039 169.71,335.206 170.5,336.5 Z"/></g>
<g><path style="opacity:1" fill="#3a3d3d" d="M 411.5,499.5 C 372.185,504.965 332.851,508.965 293.5,511.5C 266.5,511.5 239.5,511.5 212.5,511.5C 174.34,509.084 136.34,505.084 98.5,499.5C 99.3294,491.343 99.8294,483.01 100,474.5C 103.152,461.143 111.652,453.643 125.5,452C 156.493,449.999 186.16,455.332 214.5,468C 228.141,475.4 241.641,482.9 255,490.5C 256.888,490.204 258.722,489.704 260.5,489C 268.5,484 276.5,479 284.5,474C 310.469,459.566 338.302,452.066 368,451.5C 402.928,448.93 417.428,464.93 411.5,499.5 Z"/></g>
</svg>
