<?xml version="1.0" encoding="UTF-8"?>
<!DOCTYPE svg PUBLIC "-//W3C//DTD SVG 1.1//EN" "http://www.w3.org/Graphics/SVG/1.1/DTD/svg11.dtd">
<svg xmlns="http://www.w3.org/2000/svg" version="1.1" width="512px" height="512px" style="shape-rendering:geometricPrecision; text-rendering:geometricPrecision; image-rendering:optimizeQuality; fill-rule:evenodd; clip-rule:evenodd" xmlns:xlink="http://www.w3.org/1999/xlink">
<g><path style="opacity:0.988" fill="#2f3233" d="M 232.5,-0.5 C 246.833,-0.5 261.167,-0.5 275.5,-0.5C 306.967,1.59939 335.3,12.0994 360.5,31C 382.62,50.0712 395.12,74.2379 398,103.5C 401.468,134.863 399.468,165.863 392,196.5C 388.337,208.156 384.671,219.822 381,231.5C 374.751,259.758 378.251,286.758 391.5,312.5C 390.221,314.146 388.555,315.313 386.5,316C 367.782,323.111 348.448,327.611 328.5,329.5C 321.382,324.37 316.049,317.703 312.5,309.5C 337.065,286.04 351.899,257.374 357,223.5C 365.307,220.526 370.974,214.859 374,206.5C 380.771,191.938 381.105,177.272 375,162.5C 371.957,157.426 367.457,155.092 361.5,155.5C 320.309,158.231 284.976,145.231 255.5,116.5C 226.567,143.481 192.234,156.481 152.5,155.5C 143.307,154.176 137.141,157.843 134,166.5C 129.313,184.02 131.979,200.354 142,215.5C 146.007,219.225 150.174,222.559 154.5,225.5C 160.258,258.356 174.925,286.356 198.5,309.5C 195.19,316.976 190.524,323.476 184.5,329C 183.255,329.791 181.922,330.291 180.5,330.5C 168.117,329.088 155.784,327.255 143.5,325C 134.114,323.24 125.114,320.406 116.5,316.5C 134.96,293.318 140.46,267.318 133,238.5C 126.593,217.946 120.593,197.28 115,176.5C 108.746,140.554 112.079,105.554 125,71.5C 141.464,35.6634 168.964,13.1634 207.5,4C 215.936,2.26248 224.27,0.762483 232.5,-0.5 Z"/></g>
<g><path style="opacity:1" fill="#dd5f5b" d="M 240.5,59.5 C 278.32,56.4992 311.654,66.9992 340.5,91C 349.378,100.099 357.045,110.099 363.5,121C 320.24,94.4456 273.24,84.7789 222.5,92C 195.335,96.1736 170.502,106.007 148,121.5C 160.258,97.253 179.091,79.753 204.5,69C 216.293,64.5533 228.293,61.3866 240.5,59.5 Z"/></g>
<g><path style="opacity:1" fill="#dbb48d" d="M 328.5,329.5 C 333.755,333.294 339.421,336.294 345.5,338.5C 344.903,338.735 344.57,339.235 344.5,340C 346.129,347.748 347.129,355.581 347.5,363.5C 329.754,359.814 312.087,355.647 294.5,351C 285.84,347.838 278.84,342.504 273.5,335C 272.906,334.536 272.239,334.369 271.5,334.5C 280.504,330.83 289.17,326.33 297.5,321C 298.696,320.346 298.696,319.846 297.5,319.5C 285.638,326.232 272.971,330.565 259.5,332.5C 279.76,320.74 295.927,304.74 308,284.5C 324.729,257.594 333.729,228.261 335,196.5C 335.5,183.504 335.667,170.504 335.5,157.5C 304.283,157.881 277.616,147.215 255.5,125.5C 225.817,151.834 191.484,161.834 152.5,155.5C 192.234,156.481 226.567,143.481 255.5,116.5C 284.976,145.231 320.309,158.231 361.5,155.5C 367.457,155.092 371.957,157.426 375,162.5C 381.105,177.272 380.771,191.938 374,206.5C 370.974,214.859 365.307,220.526 357,223.5C 351.899,257.374 337.065,286.04 312.5,309.5C 316.049,317.703 321.382,324.37 328.5,329.5 Z"/></g>
<g><path style="opacity:1" fill="#e7c49d" d="M 259.5,332.5 C 240.132,332.154 222.465,326.154 206.5,314.5C 219.653,327.159 235.82,335.159 255,338.5C 260.535,337.241 266.035,335.908 271.5,334.5C 272.239,334.369 272.906,334.536 273.5,335C 278.84,342.504 285.84,347.838 294.5,351C 312.087,355.647 329.754,359.814 347.5,363.5C 347.833,363.5 348.167,363.5 348.5,363.5C 350.005,389.16 346.838,414.16 339,438.5C 325.679,470.763 301.512,488.263 266.5,491C 214.446,495.416 181.612,472.583 168,422.5C 162.504,395.616 162.004,368.616 166.5,341.5C 166.48,340.274 166.147,339.274 165.5,338.5C 170.913,336.627 175.913,333.96 180.5,330.5C 181.922,330.291 183.255,329.791 184.5,329C 190.524,323.476 195.19,316.976 198.5,309.5C 174.925,286.356 160.258,258.356 154.5,225.5C 150.174,222.559 146.007,219.225 142,215.5C 131.979,200.354 129.313,184.02 134,166.5C 137.141,157.843 143.307,154.176 152.5,155.5C 191.484,161.834 225.817,151.834 255.5,125.5C 277.616,147.215 304.283,157.881 335.5,157.5C 335.667,170.504 335.5,183.504 335,196.5C 333.729,228.261 324.729,257.594 308,284.5C 295.927,304.74 279.76,320.74 259.5,332.5 Z"/></g>
<g><path style="opacity:1" fill="#cda382" d="M 259.5,332.5 C 272.971,330.565 285.638,326.232 297.5,319.5C 298.696,319.846 298.696,320.346 297.5,321C 289.17,326.33 280.504,330.83 271.5,334.5C 266.035,335.908 260.535,337.241 255,338.5C 235.82,335.159 219.653,327.159 206.5,314.5C 222.465,326.154 240.132,332.154 259.5,332.5 Z"/></g>
<g><path style="opacity:1" fill="#d15852" d="M 165.5,338.5 C 166.147,339.274 166.48,340.274 166.5,341.5C 162.004,368.616 162.504,395.616 168,422.5C 181.612,472.583 214.446,495.416 266.5,491C 301.512,488.263 325.679,470.763 339,438.5C 346.838,414.16 350.005,389.16 348.5,363.5C 369.221,367.346 388.221,375.18 405.5,387C 419.905,399.973 428.405,416.139 431,435.5C 434.888,451.607 437.055,467.94 437.5,484.5C 428.601,487.772 420.934,492.772 414.5,499.5C 374.147,504.769 333.813,508.769 293.5,511.5C 266.5,511.5 239.5,511.5 212.5,511.5C 174.11,509.027 135.776,505.027 97.5,499.5C 89.2024,491.426 79.369,485.76 68,482.5C 54.2333,477.795 40.0666,475.462 25.5,475.5C 26.1823,452.073 29.6823,429.073 36,406.5C 43.2879,383.877 58.1212,368.377 80.5,360C 86.0911,357.803 91.7578,355.803 97.5,354C 120.167,348.767 142.833,343.6 165.5,338.5 Z"/></g>
<g><path style="opacity:1" fill="#c65044" d="M 345.5,338.5 C 368.167,343.6 390.833,348.767 413.5,354C 434.682,359.161 452.182,369.994 466,386.5C 475.068,404.758 480.734,424.092 483,444.5C 484.023,454.823 484.856,465.157 485.5,475.5C 468.963,475.719 452.963,478.719 437.5,484.5C 437.055,467.94 434.888,451.607 431,435.5C 428.405,416.139 419.905,399.973 405.5,387C 388.221,375.18 369.221,367.346 348.5,363.5C 348.167,363.5 347.833,363.5 347.5,363.5C 347.129,355.581 346.129,347.748 344.5,340C 344.57,339.235 344.903,338.735 345.5,338.5 Z"/></g>
<g><path style="opacity:0.945" fill="#e7c39d" d="M 25.5,475.5 C 40.0666,475.462 54.2333,477.795 68,482.5C 79.369,485.76 89.2024,491.426 97.5,499.5C 73.0382,496.274 48.7049,492.274 24.5,487.5C 25.1621,483.534 25.4955,479.534 25.5,475.5 Z"/></g>
<g><path style="opacity:1" fill="#deb690" d="M 485.5,475.5 C 485.505,479.534 485.838,483.534 486.5,487.5C 462.564,491.934 438.564,495.934 414.5,499.5C 420.934,492.772 428.601,487.772 437.5,484.5C 452.963,478.719 468.963,475.719 485.5,475.5 Z"/></g>
</svg>
