<?xml version="1.0" encoding="UTF-8"?>
<!DOCTYPE svg PUBLIC "-//W3C//DTD SVG 1.1//EN" "http://www.w3.org/Graphics/SVG/1.1/DTD/svg11.dtd">
<svg xmlns="http://www.w3.org/2000/svg" version="1.1" width="512px" height="512px" style="shape-rendering:geometricPrecision; text-rendering:geometricPrecision; image-rendering:optimizeQuality; fill-rule:evenodd; clip-rule:evenodd" xmlns:xlink="http://www.w3.org/1999/xlink">
<g><path style="opacity:0.99" fill="#565656" d="M 230.5,-0.5 C 247.167,-0.5 263.833,-0.5 280.5,-0.5C 316.866,1.09295 344.366,17.4263 363,48.5C 368.81,59.0733 371.81,70.4066 372,82.5C 373.692,106.83 373.858,131.163 372.5,155.5C 371.393,164.64 369.726,173.807 367.5,183C 367.095,183.945 366.428,184.612 365.5,185C 362.832,185.567 360.166,186.067 357.5,186.5C 354.839,158.545 352.673,130.545 351,102.5C 346.768,105.531 342.268,107.865 337.5,109.5C 329.868,110.236 322.535,109.236 315.5,106.5C 312.762,107.728 310.429,109.562 308.5,112C 297.898,118.267 286.898,119.1 275.5,114.5C 261.976,122.473 248.476,122.473 235,114.5C 220.746,120.46 208.246,117.96 197.5,107C 194.315,106.612 191.315,107.279 188.5,109C 177.874,111.259 168.374,109.092 160,102.5C 158.07,130.518 155.903,158.518 153.5,186.5C 149.37,186.68 145.87,185.346 143,182.5C 140.659,173.632 139.159,164.632 138.5,155.5C 137.118,129.855 137.284,104.189 139,78.5C 142.757,50.4298 156.59,28.9298 180.5,14C 196.291,5.72333 212.958,0.889993 230.5,-0.5 Z"/></g>
<g><path style="opacity:0.998" fill="#e7c49d" d="M 337.5,109.5 C 339.604,139.466 340.437,169.466 340,199.5C 338.142,217.961 334.308,235.961 328.5,253.5C 322.798,253.478 317.298,254.478 312,256.5C 303.574,249.561 294.074,247.728 283.5,251C 280.421,252.248 277.754,254.081 275.5,256.5C 265.514,246.73 254.181,244.896 241.5,251C 239.65,253.018 237.65,254.851 235.5,256.5C 223.251,247.228 211.085,247.228 199,256.5C 191.029,254.1 182.862,252.934 174.5,253C 160.618,247.401 154.951,237.235 157.5,222.5C 152.646,221.033 147.98,221.366 143.5,223.5C 135.367,218.169 130.034,210.669 127.5,201C 122.453,186.286 123.787,172.286 131.5,159C 133.577,157.295 135.91,156.128 138.5,155.5C 139.159,164.632 140.659,173.632 143,182.5C 145.87,185.346 149.37,186.68 153.5,186.5C 155.903,158.518 158.07,130.518 160,102.5C 168.374,109.092 177.874,111.259 188.5,109C 191.315,107.279 194.315,106.612 197.5,107C 208.246,117.96 220.746,120.46 235,114.5C 248.476,122.473 261.976,122.473 275.5,114.5C 286.898,119.1 297.898,118.267 308.5,112C 310.429,109.562 312.762,107.728 315.5,106.5C 322.535,109.236 329.868,110.236 337.5,109.5 Z"/></g>
<g><path style="opacity:0.986" fill="#dbb48d" d="M 372.5,155.5 C 378.154,157.656 381.988,161.656 384,167.5C 388.497,185.535 385.497,202.202 375,217.5C 372.522,219.639 370.022,221.639 367.5,223.5C 363.124,221.466 358.457,220.966 353.5,222C 356.516,235.628 351.85,245.628 339.5,252C 335.914,253.108 332.247,253.608 328.5,253.5C 334.308,235.961 338.142,217.961 340,199.5C 340.437,169.466 339.604,139.466 337.5,109.5C 342.268,107.865 346.768,105.531 351,102.5C 352.673,130.545 354.839,158.545 357.5,186.5C 360.166,186.067 362.832,185.567 365.5,185C 366.428,184.612 367.095,183.945 367.5,183C 369.726,173.807 371.393,164.64 372.5,155.5 Z"/></g>
<g><path style="opacity:0.994" fill="#565656" d="M 328.5,253.5 C 332.247,253.608 335.914,253.108 339.5,252C 351.85,245.628 356.516,235.628 353.5,222C 358.457,220.966 363.124,221.466 367.5,223.5C 375.597,233.563 376.263,244.063 369.5,255C 378.338,268.121 377.171,280.287 366,291.5C 368.287,300.468 367.287,309.135 363,317.5C 358.279,323.61 352.112,327.277 344.5,328.5C 343.579,330.777 342.913,333.11 342.5,335.5C 339.194,340.806 334.861,345.139 329.5,348.5C 324.324,350.019 318.99,350.853 313.5,351C 312.733,352.47 312.067,353.97 311.5,355.5C 306.777,364.199 299.444,368.865 289.5,369.5C 288.833,369.5 288.167,369.5 287.5,369.5C 284.12,368.755 280.786,367.755 277.5,366.5C 274.071,370.262 270.071,373.262 265.5,375.5C 258.531,378.123 251.531,378.123 244.5,375.5C 240.74,373.576 237.74,370.743 235.5,367C 231.211,367.651 226.877,368.485 222.5,369.5C 221.5,369.5 220.5,369.5 219.5,369.5C 208.313,367.64 201.313,361.307 198.5,350.5C 192.641,350.949 186.975,350.283 181.5,348.5C 180.833,348.167 180.167,347.833 179.5,347.5C 175.096,344.099 171.429,340.099 168.5,335.5C 168.301,333.04 167.635,330.707 166.5,328.5C 152.485,325.658 145.152,317.158 144.5,303C 144.357,299.465 145.024,296.132 146.5,293C 134.095,281.68 132.428,269.013 141.5,255C 134.955,244.082 135.622,233.582 143.5,223.5C 147.98,221.366 152.646,221.033 157.5,222.5C 154.951,237.235 160.618,247.401 174.5,253C 182.862,252.934 191.029,254.1 199,256.5C 211.085,247.228 223.251,247.228 235.5,256.5C 237.65,254.851 239.65,253.018 241.5,251C 254.181,244.896 265.514,246.73 275.5,256.5C 277.754,254.081 280.421,252.248 283.5,251C 294.074,247.728 303.574,249.561 312,256.5C 317.298,254.478 322.798,253.478 328.5,253.5 Z"/></g>
<g><path style="opacity:0.994" fill="#9e6f4c" d="M 168.5,335.5 C 171.429,340.099 175.096,344.099 179.5,347.5C 185.56,365.514 191.727,383.514 198,401.5C 206.418,390.983 214.585,380.317 222.5,369.5C 226.877,368.485 231.211,367.651 235.5,367C 237.74,370.743 240.74,373.576 244.5,375.5C 247.611,385.055 251.278,394.389 255.5,403.5C 259.406,394.358 262.739,385.025 265.5,375.5C 270.071,373.262 274.071,370.262 277.5,366.5C 280.786,367.755 284.12,368.755 287.5,369.5C 295.068,380.575 303.234,391.242 312,401.5C 316.77,387.021 321.604,372.688 326.5,358.5C 349.002,362.033 371.002,367.533 392.5,375C 421.341,386.502 437.841,407.669 442,438.5C 445.995,457.294 448.161,476.294 448.5,495.5C 397.639,503.152 346.639,508.486 295.5,511.5C 285.833,511.5 276.167,511.5 266.5,511.5C 265.622,501.816 260.289,497.983 250.5,500C 246.015,502.624 244.015,506.458 244.5,511.5C 233.167,511.5 221.833,511.5 210.5,511.5C 144.129,507.68 78.129,499.68 12.5,487.5C 11.9722,461.756 15.1389,436.423 22,411.5C 27.1484,391.029 38.9818,375.863 57.5,366C 65.5943,362.079 73.9276,358.746 82.5,356C 105.02,350.363 127.686,345.363 150.5,341C 156.622,339.471 162.622,337.638 168.5,335.5 Z"/></g>
<g><path style="opacity:1" fill="#8e633f" d="M 342.5,335.5 C 348.378,337.638 354.378,339.471 360.5,341C 386.508,345.601 412.175,351.601 437.5,359C 459.955,366.13 476.122,380.297 486,401.5C 495.058,429.506 499.224,458.173 498.5,487.5C 481.943,490.815 465.276,493.482 448.5,495.5C 448.161,476.294 445.995,457.294 442,438.5C 437.841,407.669 421.341,386.502 392.5,375C 371.002,367.533 349.002,362.033 326.5,358.5C 327.5,355.167 328.5,351.833 329.5,348.5C 334.861,345.139 339.194,340.806 342.5,335.5 Z"/></g>
<g><path style="opacity:1" fill="#8d623f" d="M 181.5,348.5 C 186.975,350.283 192.641,350.949 198.5,350.5C 201.313,361.307 208.313,367.64 219.5,369.5C 212.874,377.296 206.041,384.962 199,392.5C 192.877,377.925 187.043,363.258 181.5,348.5 Z"/></g>
<g><path style="opacity:1" fill="#8d623e" d="M 311.5,355.5 C 315.538,355.958 319.538,356.624 323.5,357.5C 319.898,369.467 315.398,381.133 310,392.5C 302.959,384.962 296.126,377.296 289.5,369.5C 299.444,368.865 306.777,364.199 311.5,355.5 Z"/></g>
<g><path style="opacity:1" fill="#7f5733" d="M 329.5,348.5 C 328.5,351.833 327.5,355.167 326.5,358.5C 321.604,372.688 316.77,387.021 312,401.5C 303.234,391.242 295.068,380.575 287.5,369.5C 288.167,369.5 288.833,369.5 289.5,369.5C 296.126,377.296 302.959,384.962 310,392.5C 315.398,381.133 319.898,369.467 323.5,357.5C 319.538,356.624 315.538,355.958 311.5,355.5C 312.067,353.97 312.733,352.47 313.5,351C 318.99,350.853 324.324,350.019 329.5,348.5 Z"/></g>
<g><path style="opacity:1" fill="#805833" d="M 179.5,347.5 C 180.167,347.833 180.833,348.167 181.5,348.5C 187.043,363.258 192.877,377.925 199,392.5C 206.041,384.962 212.874,377.296 219.5,369.5C 220.5,369.5 221.5,369.5 222.5,369.5C 214.585,380.317 206.418,390.983 198,401.5C 191.727,383.514 185.56,365.514 179.5,347.5 Z"/></g>
<g><path style="opacity:1" fill="#e5c29c" d="M 244.5,375.5 C 251.531,378.123 258.531,378.123 265.5,375.5C 262.739,385.025 259.406,394.358 255.5,403.5C 251.278,394.389 247.611,385.055 244.5,375.5 Z"/></g>
<g><path style="opacity:1" fill="#e8e1d8" d="M 250.5,419.5 C 261.875,418.377 267.042,423.377 266,434.5C 262.96,440.603 258.126,442.769 251.5,441C 245.092,437.677 242.925,432.511 245,425.5C 247.04,423.63 248.873,421.63 250.5,419.5 Z"/></g>
<g><path style="opacity:1" fill="#e7e1d7" d="M 250.5,459.5 C 257.113,457.993 262.28,459.993 266,465.5C 267.661,476.837 262.828,482.004 251.5,481C 245.092,477.677 242.925,472.511 245,465.5C 247.04,463.63 248.873,461.63 250.5,459.5 Z"/></g>
<g><path style="opacity:1" fill="#e8e2d8" d="M 266.5,511.5 C 259.167,511.5 251.833,511.5 244.5,511.5C 244.015,506.458 246.015,502.624 250.5,500C 260.289,497.983 265.622,501.816 266.5,511.5 Z"/></g>
</svg>
