<?xml version="1.0" encoding="UTF-8"?>
<!DOCTYPE svg PUBLIC "-//W3C//DTD SVG 1.1//EN" "http://www.w3.org/Graphics/SVG/1.1/DTD/svg11.dtd">
<svg xmlns="http://www.w3.org/2000/svg" version="1.1" width="512px" height="512px" style="shape-rendering:geometricPrecision; text-rendering:geometricPrecision; image-rendering:optimizeQuality; fill-rule:evenodd; clip-rule:evenodd" xmlns:xlink="http://www.w3.org/1999/xlink">
<g><path style="opacity:0.991" fill="#393c3d" d="M 238.5,-0.5 C 249.167,-0.5 259.833,-0.5 270.5,-0.5C 302.717,3.44356 326.717,19.6102 342.5,48C 351.188,48.4273 358.354,51.9273 364,58.5C 371.421,70.0896 376.087,82.7562 378,96.5C 381.142,117.151 381.308,137.818 378.5,158.5C 375.719,166.164 372.719,173.83 369.5,181.5C 368.833,174.833 368.167,168.167 367.5,161.5C 367.778,141.329 366.111,121.329 362.5,101.5C 352.171,116.987 338.171,127.82 320.5,134C 311.46,137.797 302.127,140.13 292.5,141C 298.865,134.775 303.031,127.275 305,118.5C 306.66,111.88 307.66,105.213 308,98.5C 297.699,111.123 284.865,120.29 269.5,126C 235.258,139.288 199.925,143.455 163.5,138.5C 157.357,136.756 151.19,135.089 145,133.5C 143.939,138.104 143.273,142.771 143,147.5C 142.667,160.167 142.333,172.833 142,185.5C 136.664,178.366 132.497,170.7 129.5,162.5C 124.149,134.186 124.315,105.853 130,77.5C 136.705,55.13 149.871,37.63 169.5,25C 190.932,12.0254 213.932,3.5254 238.5,-0.5 Z"/></g>
<g><path style="opacity:0.994" fill="#cba382" d="M 367.5,161.5 C 367.17,168.532 367.503,175.532 368.5,182.5C 369.107,182.376 369.44,182.043 369.5,181.5C 372.719,173.83 375.719,166.164 378.5,158.5C 383.92,165.483 386.586,173.483 386.5,182.5C 385.995,195.85 381.829,207.85 374,218.5C 371.131,221.268 367.798,223.268 364,224.5C 358.777,249.935 348.444,272.935 333,293.5C 327.965,298.703 322.798,303.703 317.5,308.5C 300.542,321.158 281.542,329.158 260.5,332.5C 282.713,319.789 300.546,302.456 314,280.5C 329.836,255.141 338.503,227.475 340,197.5C 340.505,177.157 340.171,156.824 339,136.5C 338.798,134.744 338.298,133.078 337.5,131.5C 319.519,141.662 300.186,146.829 279.5,147C 285.497,141.476 289.164,134.976 290.5,127.5C 249.289,145.847 206.956,149.513 163.5,138.5C 199.925,143.455 235.258,139.288 269.5,126C 284.865,120.29 297.699,111.123 308,98.5C 307.66,105.213 306.66,111.88 305,118.5C 303.031,127.275 298.865,134.775 292.5,141C 302.127,140.13 311.46,137.797 320.5,134C 338.171,127.82 352.171,116.987 362.5,101.5C 366.111,121.329 367.778,141.329 367.5,161.5 Z"/></g>
<g><path style="opacity:0.997" fill="#dab390" d="M 260.5,332.5 C 260.5,332.833 260.5,333.167 260.5,333.5C 257.167,333.5 253.833,333.5 250.5,333.5C 245.606,332.181 240.606,330.848 235.5,329.5C 219.779,324.755 205.446,317.422 192.5,307.5C 175.082,292.709 162.582,274.375 155,252.5C 151.928,243.284 149.261,233.95 147,224.5C 137.96,221.125 131.96,214.792 129,205.5C 124.544,194.115 123.544,182.449 126,170.5C 126.387,167.401 127.554,164.734 129.5,162.5C 132.497,170.7 136.664,178.366 142,185.5C 142.333,172.833 142.667,160.167 143,147.5C 143.273,142.771 143.939,138.104 145,133.5C 151.19,135.089 157.357,136.756 163.5,138.5C 206.956,149.513 249.289,145.847 290.5,127.5C 289.164,134.976 285.497,141.476 279.5,147C 300.186,146.829 319.519,141.662 337.5,131.5C 338.298,133.078 338.798,134.744 339,136.5C 340.171,156.824 340.505,177.157 340,197.5C 338.503,227.475 329.836,255.141 314,280.5C 300.546,302.456 282.713,319.789 260.5,332.5 Z"/></g>
<g><path style="opacity:1" fill="#7d6c5e" d="M 367.5,161.5 C 368.167,168.167 368.833,174.833 369.5,181.5C 369.44,182.043 369.107,182.376 368.5,182.5C 367.503,175.532 367.17,168.532 367.5,161.5 Z"/></g>
<g><path style="opacity:1" fill="#dfdad1" d="M 317.5,308.5 C 319.5,311.5 321.5,314.5 323.5,317.5C 320.362,327.705 317.362,338.039 314.5,348.5C 312.167,350.5 309.833,352.5 307.5,354.5C 306.652,353.375 305.652,353.375 304.5,354.5C 298.923,352.05 293.257,349.55 287.5,347C 284.217,345.439 281.383,343.273 279,340.5C 278.601,340.728 278.435,341.062 278.5,341.5C 277.33,339.35 276.33,337.016 275.5,334.5C 270.544,333.506 265.544,333.173 260.5,333.5C 260.5,333.167 260.5,332.833 260.5,332.5C 281.542,329.158 300.542,321.158 317.5,308.5 Z"/></g>
<g><path style="opacity:0.998" fill="#72726a" d="M 185.5,317.5 C 201.312,374.749 216.812,432.082 232,489.5C 232.191,487.292 232.691,485.292 233.5,483.5C 233.74,486.579 233.407,489.579 232.5,492.5C 234.634,498.701 236.3,505.034 237.5,511.5C 228.5,511.5 219.5,511.5 210.5,511.5C 208.393,510.532 206.059,510.198 203.5,510.5C 183.443,474.725 163.11,439.059 142.5,403.5C 149.977,400.261 157.31,396.761 164.5,393C 158.909,390.803 153.242,388.803 147.5,387C 146.09,386.632 145.09,385.799 144.5,384.5C 148.479,372.579 152.146,360.579 155.5,348.5C 157.277,345.495 158.277,342.162 158.5,338.5C 167.681,331.742 176.681,324.742 185.5,317.5 Z"/></g>
<g><path style="opacity:1" fill="#636358" d="M 323.5,317.5 C 332.81,324.149 341.81,331.149 350.5,338.5C 353.369,347.106 356.035,355.773 358.5,364.5C 343.373,361.96 328.373,358.96 313.5,355.5C 313.674,353.139 314.007,350.806 314.5,348.5C 317.362,338.039 320.362,327.705 323.5,317.5 Z"/></g>
<g><path style="opacity:1" fill="#c6c4ae" d="M 235.5,329.5 C 240.606,330.848 245.606,332.181 250.5,333.5C 244.833,333.5 239.167,333.5 233.5,333.5C 234.167,332.167 234.833,330.833 235.5,329.5 Z"/></g>
<g><path style="opacity:0.988" fill="#626257" d="M 158.5,338.5 C 158.277,342.162 157.277,345.495 155.5,348.5C 149.178,360.604 143.511,373.104 138.5,386C 138.905,386.945 139.572,387.612 140.5,388C 146.833,389.667 153.167,391.333 159.5,393C 151.348,395.914 143.348,399.081 135.5,402.5C 157.511,438.528 179.511,474.528 201.5,510.5C 137.981,506.998 74.9809,499.331 12.5,487.5C 11.6041,458.147 15.7708,429.48 25,401.5C 34.8779,380.297 51.0446,366.13 73.5,359C 80.0749,356.69 86.7416,354.69 93.5,353C 115.312,348.605 136.978,343.772 158.5,338.5 Z"/></g>
<g><path style="opacity:1" fill="#515147" d="M 350.5,338.5 C 372.772,343.521 395.105,348.355 417.5,353C 441.426,357.824 461.593,368.991 478,386.5C 485.589,399.171 490.589,412.837 493,427.5C 496.972,447.358 498.805,467.358 498.5,487.5C 481.943,490.815 465.276,493.482 448.5,495.5C 448.335,468.508 444.168,442.174 436,416.5C 427.401,396.569 412.901,382.736 392.5,375C 382.768,371.068 372.768,368.401 362.5,367C 365.629,373.425 368.629,379.925 371.5,386.5C 364.458,388.511 357.458,390.678 350.5,393C 358.167,396.167 365.833,399.333 373.5,402.5C 351.308,438.224 329.641,474.224 308.5,510.5C 307.5,510.5 306.5,510.5 305.5,510.5C 325.138,475.228 345.304,440.228 366,405.5C 366.483,404.552 366.649,403.552 366.5,402.5C 358.819,400.16 351.486,396.994 344.5,393C 350.96,390.352 357.46,387.852 364,385.5C 362.906,378.373 361.073,371.373 358.5,364.5C 356.035,355.773 353.369,347.106 350.5,338.5 Z"/></g>
<g><path style="opacity:1" fill="#e9e9e0" d="M 304.5,354.5 C 297.785,359.613 290.952,364.613 284,369.5C 282.871,364.031 281.704,358.698 280.5,353.5C 280.152,349.443 279.486,345.443 278.5,341.5C 278.435,341.062 278.601,340.728 279,340.5C 281.383,343.273 284.217,345.439 287.5,347C 293.257,349.55 298.923,352.05 304.5,354.5 Z"/></g>
<g><path style="opacity:1" fill="#e8e8df" d="M 314.5,348.5 C 314.007,350.806 313.674,353.139 313.5,355.5C 301.536,398.356 290.036,441.356 279,484.5C 278.617,485.056 278.117,485.389 277.5,485.5C 275.395,448.133 272.728,410.8 269.5,373.5C 269.667,371.5 269.833,369.5 270,367.5C 272.705,364.964 275.205,362.297 277.5,359.5C 278.586,359.62 279.253,360.287 279.5,361.5C 280.348,366.926 281.514,372.259 283,377.5C 291.338,369.995 299.505,362.328 307.5,354.5C 309.833,352.5 312.167,350.5 314.5,348.5 Z"/></g>
<g><path style="opacity:1" fill="#e8e8df" d="M 192.5,307.5 C 205.446,317.422 219.779,324.755 235.5,329.5C 234.833,330.833 234.167,332.167 233.5,333.5C 231.217,340.351 229.55,347.351 228.5,354.5C 227.795,359.369 226.461,364.036 224.5,368.5C 216.323,362.911 208.323,357.078 200.5,351C 199.833,350.333 199.167,350.333 198.5,351C 208.035,360.204 217.868,369.037 228,377.5C 229.583,371.07 231.083,364.737 232.5,358.5C 238.227,362.689 241.56,368.189 242.5,375C 239.523,411.174 236.523,447.341 233.5,483.5C 232.691,485.292 232.191,487.292 232,489.5C 216.812,432.082 201.312,374.749 185.5,317.5C 187.833,314.167 190.167,310.833 192.5,307.5 Z"/></g>
<g><path style="opacity:1" fill="#c8c7b3" d="M 228.5,354.5 C 230.167,355.5 231.5,356.833 232.5,358.5C 231.083,364.737 229.583,371.07 228,377.5C 217.868,369.037 208.035,360.204 198.5,351C 199.167,350.333 199.833,350.333 200.5,351C 208.323,357.078 216.323,362.911 224.5,368.5C 226.461,364.036 227.795,359.369 228.5,354.5 Z"/></g>
<g><path style="opacity:1" fill="#c7c6b1" d="M 280.5,353.5 C 281.704,358.698 282.871,364.031 284,369.5C 290.952,364.613 297.785,359.613 304.5,354.5C 305.652,353.375 306.652,353.375 307.5,354.5C 299.505,362.328 291.338,369.995 283,377.5C 281.514,372.259 280.348,366.926 279.5,361.5C 279.253,360.287 278.586,359.62 277.5,359.5C 279.385,357.947 280.385,355.947 280.5,353.5 Z"/></g>
<g><path style="opacity:1" fill="#72726a" d="M 313.5,355.5 C 328.373,358.96 343.373,361.96 358.5,364.5C 361.073,371.373 362.906,378.373 364,385.5C 357.46,387.852 350.96,390.352 344.5,393C 351.486,396.994 358.819,400.16 366.5,402.5C 366.649,403.552 366.483,404.552 366,405.5C 345.304,440.228 325.138,475.228 305.5,510.5C 301.958,510.187 298.625,510.521 295.5,511.5C 282.167,511.5 268.833,511.5 255.5,511.5C 260.9,510.813 266.4,510.146 272,509.5C 274.464,501.645 276.297,493.645 277.5,485.5C 278.117,485.389 278.617,485.056 279,484.5C 290.036,441.356 301.536,398.356 313.5,355.5 Z"/></g>
<g><path style="opacity:0.994" fill="#626257" d="M 448.5,495.5 C 402.099,502.607 355.432,507.607 308.5,510.5C 329.641,474.224 351.308,438.224 373.5,402.5C 365.833,399.333 358.167,396.167 350.5,393C 357.458,390.678 364.458,388.511 371.5,386.5C 368.629,379.925 365.629,373.425 362.5,367C 372.768,368.401 382.768,371.068 392.5,375C 412.901,382.736 427.401,396.569 436,416.5C 444.168,442.174 448.335,468.508 448.5,495.5 Z"/></g>
<g><path style="opacity:1" fill="#4c4c4c" d="M 233.5,333.5 C 239.167,333.5 244.833,333.5 250.5,333.5C 253.833,333.5 257.167,333.5 260.5,333.5C 265.544,333.173 270.544,333.506 275.5,334.5C 276.33,337.016 277.33,339.35 278.5,341.5C 279.486,345.443 280.152,349.443 280.5,353.5C 280.385,355.947 279.385,357.947 277.5,359.5C 275.205,362.297 272.705,364.964 270,367.5C 269.833,369.5 269.667,371.5 269.5,373.5C 272.728,410.8 275.395,448.133 277.5,485.5C 276.297,493.645 274.464,501.645 272,509.5C 266.4,510.146 260.9,510.813 255.5,511.5C 249.5,511.5 243.5,511.5 237.5,511.5C 236.3,505.034 234.634,498.701 232.5,492.5C 233.407,489.579 233.74,486.579 233.5,483.5C 236.523,447.341 239.523,411.174 242.5,375C 241.56,368.189 238.227,362.689 232.5,358.5C 231.5,356.833 230.167,355.5 228.5,354.5C 229.55,347.351 231.217,340.351 233.5,333.5 Z"/></g>
<g><path style="opacity:1" fill="#525248" d="M 155.5,348.5 C 152.146,360.579 148.479,372.579 144.5,384.5C 145.09,385.799 146.09,386.632 147.5,387C 153.242,388.803 158.909,390.803 164.5,393C 157.31,396.761 149.977,400.261 142.5,403.5C 163.11,439.059 183.443,474.725 203.5,510.5C 202.833,510.5 202.167,510.5 201.5,510.5C 179.511,474.528 157.511,438.528 135.5,402.5C 143.348,399.081 151.348,395.914 159.5,393C 153.167,391.333 146.833,389.667 140.5,388C 139.572,387.612 138.905,386.945 138.5,386C 143.511,373.104 149.178,360.604 155.5,348.5 Z"/></g>
</svg>
