<?xml version="1.0" encoding="UTF-8"?>
<!DOCTYPE svg PUBLIC "-//W3C//DTD SVG 1.1//EN" "http://www.w3.org/Graphics/SVG/1.1/DTD/svg11.dtd">
<svg xmlns="http://www.w3.org/2000/svg" version="1.1" width="512px" height="512px" style="shape-rendering:geometricPrecision; text-rendering:geometricPrecision; image-rendering:optimizeQuality; fill-rule:evenodd; clip-rule:evenodd" xmlns:xlink="http://www.w3.org/1999/xlink">
<g><path style="opacity:0.994" fill="#e7c49d" d="M 334.5,23.5 C 340.987,61.2141 344.32,99.2141 344.5,137.5C 319.322,134.456 294.656,136.622 270.5,144C 260.167,144.667 249.833,144.667 239.5,144C 210.116,135.174 180.449,134.174 150.5,141C 146.737,141.92 143.237,143.42 140,145.5C 139.333,151.833 139.333,158.167 140,164.5C 142.125,165.484 143.292,167.15 143.5,169.5C 144.714,181.452 147.214,193.119 151,204.5C 152.952,206.894 155.452,208.394 158.5,209C 178.151,213.638 197.818,213.638 217.5,209C 224.661,207.837 229.828,204.003 233,197.5C 239.36,186.09 244.36,174.09 248,161.5C 253,158.833 258,158.833 263,161.5C 266.735,175.384 272.402,188.384 280,200.5C 282.061,202.806 284.228,204.973 286.5,207C 303.459,212.375 320.792,213.875 338.5,211.5C 333.956,231.916 325.623,250.583 313.5,267.5C 312.527,267.013 311.527,266.513 310.5,266C 301.803,257.637 293.469,248.97 285.5,240C 280.676,236.676 275.343,235.676 269.5,237C 264.334,239.08 259.667,241.913 255.5,245.5C 248.231,238.365 239.565,235.531 229.5,237C 228.672,237.915 227.672,238.581 226.5,239C 217.167,249.667 207.167,259.667 196.5,269C 190.144,273.514 183.144,276.348 175.5,277.5C 158.874,255.564 148.207,230.897 143.5,203.5C 136.816,203.237 131.649,200.237 128,194.5C 118.523,178.916 115.856,162.25 120,144.5C 121.413,141.339 123.08,138.339 125,135.5C 126.87,133.781 129.037,132.781 131.5,132.5C 133.857,132.337 136.19,132.503 138.5,133C 145.821,142.743 152.321,141.909 158,130.5C 158.935,111.456 158.602,92.4562 157,73.5C 154.752,67.0804 150.252,64.0804 143.5,64.5C 151.036,41.4625 166.036,25.2958 188.5,16C 228.754,2.69003 269.421,1.3567 310.5,12C 318.987,14.9861 326.987,18.8194 334.5,23.5 Z"/></g>
<g><path style="opacity:0.977" fill="#dfdad2" d="M 365.5,63.5 C 379.852,68.8613 386.019,79.1946 384,94.5C 382.959,107.247 381.459,119.914 379.5,132.5C 373.355,131.803 369.022,134.303 366.5,140C 359.896,140.61 355.396,137.777 353,131.5C 352.333,112.833 352.333,94.1667 353,75.5C 355.12,69.2106 359.286,65.2106 365.5,63.5 Z"/></g>
<g><path style="opacity:0.98" fill="#e0dad2" d="M 143.5,64.5 C 150.252,64.0804 154.752,67.0804 157,73.5C 158.602,92.4562 158.935,111.456 158,130.5C 152.321,141.909 145.821,142.743 138.5,133C 136.19,132.503 133.857,132.337 131.5,132.5C 129.139,118.058 127.139,103.558 125.5,89C 126.397,76.9544 132.397,68.7877 143.5,64.5 Z"/></g>
<g><path style="opacity:1" fill="#ddb58e" d="M 199.5,70.5 C 214.314,70.6961 228.647,73.5294 242.5,79C 251.16,80.9564 259.827,80.9564 268.5,79C 282.242,72.9514 296.575,70.2847 311.5,71C 319.591,72.5262 326.924,75.6929 333.5,80.5C 334.747,82.0064 334.747,83.5064 333.5,85C 328.795,82.4864 323.795,80.1531 318.5,78C 310.646,75.6756 302.646,75.009 294.5,76C 281.627,80.4408 268.46,83.6074 255,85.5C 243.092,84.3147 231.592,81.4814 220.5,77C 206.002,73.2299 192.669,75.5632 180.5,84C 178.866,84.4935 177.199,84.6602 175.5,84.5C 175.351,83.448 175.517,82.448 176,81.5C 182.829,75.5 190.662,71.8333 199.5,70.5 Z"/></g>
<g><path style="opacity:1" fill="#ddb58e" d="M 199.5,86.5 C 204.511,86.3341 209.511,86.5007 214.5,87C 224.22,89.4619 233.886,92.1285 243.5,95C 251.5,95.6667 259.5,95.6667 267.5,95C 276.062,92.0255 284.729,89.3589 293.5,87C 307.547,84.7633 320.547,87.43 332.5,95C 334.155,96.4443 334.822,98.2776 334.5,100.5C 330.191,99.5148 326.191,97.6815 322.5,95C 311.693,91.252 300.693,90.5853 289.5,93C 278.482,97.0889 267.148,99.5889 255.5,100.5C 250.12,100.464 244.786,99.9645 239.5,99C 231.575,96.47 223.575,94.1366 215.5,92C 201.929,89.812 189.595,92.6453 178.5,100.5C 174.724,99.0786 174.724,97.2453 178.5,95C 185.005,90.6716 192.005,87.8382 199.5,86.5 Z"/></g>
<g><path style="opacity:0.985" fill="#dcb48e" d="M 334.5,23.5 C 349.29,33.3005 359.623,46.6339 365.5,63.5C 359.286,65.2106 355.12,69.2106 353,75.5C 352.333,94.1667 352.333,112.833 353,131.5C 355.396,137.777 359.896,140.61 366.5,140C 369.022,134.303 373.355,131.803 379.5,132.5C 382.959,133.436 385.793,135.436 388,138.5C 395.457,158.475 393.457,177.475 382,195.5C 378.33,199.498 373.996,202.498 369,204.5C 363.69,231.974 352.524,256.64 335.5,278.5C 327.022,276.928 319.689,273.261 313.5,267.5C 325.623,250.583 333.956,231.916 338.5,211.5C 344.192,210.528 349.859,209.361 355.5,208C 357.286,207.215 358.786,206.049 360,204.5C 363.786,193.119 366.286,181.452 367.5,169.5C 367.708,167.15 368.875,165.484 371,164.5C 371.667,158.167 371.667,151.833 371,145.5C 362.345,141.89 353.512,139.223 344.5,137.5C 344.32,99.2141 340.987,61.2141 334.5,23.5 Z"/></g>
<g><path style="opacity:1" fill="#503a29" d="M 344.5,137.5 C 353.512,139.223 362.345,141.89 371,145.5C 371.667,151.833 371.667,158.167 371,164.5C 368.875,165.484 367.708,167.15 367.5,169.5C 366.286,181.452 363.786,193.119 360,204.5C 358.786,206.049 357.286,207.215 355.5,208C 349.859,209.361 344.192,210.528 338.5,211.5C 320.792,213.875 303.459,212.375 286.5,207C 284.228,204.973 282.061,202.806 280,200.5C 272.402,188.384 266.735,175.384 263,161.5C 258,158.833 253,158.833 248,161.5C 244.36,174.09 239.36,186.09 233,197.5C 229.828,204.003 224.661,207.837 217.5,209C 197.818,213.638 178.151,213.638 158.5,209C 155.452,208.394 152.952,206.894 151,204.5C 147.214,193.119 144.714,181.452 143.5,169.5C 143.292,167.15 142.125,165.484 140,164.5C 139.333,158.167 139.333,151.833 140,145.5C 143.237,143.42 146.737,141.92 150.5,141C 180.449,134.174 210.116,135.174 239.5,144C 249.833,144.667 260.167,144.667 270.5,144C 294.656,136.622 319.322,134.456 344.5,137.5 Z"/></g>
<g><path style="opacity:1" fill="#e6c39d" d="M 174.5,143.5 C 195.406,141.58 215.739,144.08 235.5,151C 239.367,154.66 240.534,159.16 239,164.5C 236.046,177.572 230.546,189.406 222.5,200C 211.919,205.014 200.753,207.181 189,206.5C 180.395,206.7 171.895,205.867 163.5,204C 160.452,203.394 157.952,201.894 156,199.5C 150.11,184.608 148.443,169.275 151,153.5C 152.938,150.894 155.438,149.061 158.5,148C 163.874,146.16 169.207,144.66 174.5,143.5 Z"/></g>
<g><path style="opacity:1" fill="#e6c39d" d="M 344.5,146.5 C 345.206,166.002 343.873,185.335 340.5,204.5C 324.839,207.585 309.172,207.085 293.5,203C 285.811,197.282 280.311,189.782 277,180.5C 273.098,172.232 271.431,163.566 272,154.5C 273.167,153.333 274.333,152.167 275.5,151C 294.202,143.929 313.536,141.596 333.5,144C 337.43,144.242 341.097,145.075 344.5,146.5 Z"/></g>
<g><path style="opacity:1" fill="#dbb38d" d="M 344.5,146.5 C 360.896,148.916 366.396,158.249 361,174.5C 360.388,183.179 358.388,191.512 355,199.5C 350.869,203.044 346.036,204.711 340.5,204.5C 343.873,185.335 345.206,166.002 344.5,146.5 Z"/></g>
<g><path style="opacity:0.991" fill="#e0dad2" d="M 313.5,267.5 C 319.689,273.261 327.022,276.928 335.5,278.5C 339.582,278.344 343.582,278.844 347.5,280C 339.483,285.509 330.816,289.675 321.5,292.5C 320.391,292.557 319.391,292.89 318.5,293.5C 309.504,294.89 300.504,295.224 291.5,294.5C 277.812,291.323 265.812,284.99 255.5,275.5C 241.821,287.671 225.821,294.338 207.5,295.5C 202.703,295.577 198.037,294.91 193.5,293.5C 191.883,292.962 190.216,292.629 188.5,292.5C 179.367,289.934 171.034,285.767 163.5,280C 167.504,279.003 171.504,278.169 175.5,277.5C 183.144,276.348 190.144,273.514 196.5,269C 207.167,259.667 217.167,249.667 226.5,239C 227.672,238.581 228.672,237.915 229.5,237C 239.565,235.531 248.231,238.365 255.5,245.5C 259.667,241.913 264.334,239.08 269.5,237C 275.343,235.676 280.676,236.676 285.5,240C 293.469,248.97 301.803,257.637 310.5,266C 311.527,266.513 312.527,267.013 313.5,267.5 Z"/></g>
<g><path style="opacity:1" fill="#e7c49d" d="M 291.5,294.5 C 282.094,304.702 271.094,312.702 258.5,318.5C 234.054,317.024 212.387,308.691 193.5,293.5C 198.037,294.91 202.703,295.577 207.5,295.5C 225.821,294.338 241.821,287.671 255.5,275.5C 265.812,284.99 277.812,291.323 291.5,294.5 Z"/></g>
<g><path style="opacity:0.992" fill="#515151" d="M 188.5,292.5 C 190.216,292.629 191.883,292.962 193.5,293.5C 212.387,308.691 234.054,317.024 258.5,318.5C 263.227,317.755 267.894,316.755 272.5,315.5C 280.705,328.953 292.705,336.953 308.5,339.5C 300.999,345.512 293.166,351.179 285,356.5C 276.256,345.934 267.756,335.268 259.5,324.5C 258.207,322.704 256.707,321.037 255,319.5C 254.283,320.044 253.783,320.711 253.5,321.5C 243.531,332.976 233.698,344.642 224,356.5C 210.383,346.946 196.883,337.28 183.5,327.5C 178.948,324.397 174.614,321.064 170.5,317.5C 176.5,309.167 182.5,300.833 188.5,292.5 Z"/></g>
<g><path style="opacity:1" fill="#494948" d="M 321.5,292.5 C 327.475,300.815 333.475,309.148 339.5,317.5C 335.878,319.787 332.545,322.453 329.5,325.5C 322.518,330.141 315.518,334.807 308.5,339.5C 292.705,336.953 280.705,328.953 272.5,315.5C 289.475,311.344 304.808,304.01 318.5,293.5C 319.391,292.89 320.391,292.557 321.5,292.5 Z"/></g>
<g><path style="opacity:1" fill="#dab48e" d="M 318.5,293.5 C 304.808,304.01 289.475,311.344 272.5,315.5C 267.894,316.755 263.227,317.755 258.5,318.5C 271.094,312.702 282.094,304.702 291.5,294.5C 300.504,295.224 309.504,294.89 318.5,293.5 Z"/></g>
<g><path style="opacity:0.994" fill="#c5c0b9" d="M 170.5,317.5 C 174.614,321.064 178.948,324.397 183.5,327.5C 197.16,340.947 211.66,353.614 227,365.5C 236.484,351.192 245.317,336.526 253.5,321.5C 253.783,320.711 254.283,320.044 255,319.5C 256.707,321.037 258.207,322.704 259.5,324.5C 267.225,338.276 275.225,351.942 283.5,365.5C 293.186,357.477 302.853,349.477 312.5,341.5C 339.919,345.817 366.919,351.984 393.5,360C 410.099,365.882 424.266,375.382 436,388.5C 443.882,401.806 449.216,416.139 452,431.5C 455.517,450.682 457.683,470.015 458.5,489.5C 390.199,499.53 321.532,505.197 252.5,506.5C 167.407,505.024 83.0738,496.357 -0.5,480.5C -0.5,475.5 -0.5,470.5 -0.5,465.5C 0.82512,442.551 4.65845,419.884 11,397.5C 16.9091,377.505 29.0757,362.672 47.5,353C 54.3839,349.725 61.3839,346.725 68.5,344C 95.9395,336.704 123.606,330.371 151.5,325C 158.14,323.178 164.473,320.678 170.5,317.5 Z"/></g>
<g><path style="opacity:0.988" fill="#bcb6af" d="M 339.5,317.5 C 345.949,320.484 352.616,322.984 359.5,325C 386.316,330.358 412.983,336.358 439.5,343C 461.111,348.976 478.611,360.809 492,378.5C 499.318,394.099 504.318,410.433 507,427.5C 508.71,440.291 510.21,452.958 511.5,465.5C 511.5,470.5 511.5,475.5 511.5,480.5C 493.887,483.824 476.221,486.824 458.5,489.5C 457.683,470.015 455.517,450.682 452,431.5C 449.216,416.139 443.882,401.806 436,388.5C 424.266,375.382 410.099,365.882 393.5,360C 366.919,351.984 339.919,345.817 312.5,341.5C 318.167,336.167 323.833,330.833 329.5,325.5C 332.545,322.453 335.878,319.787 339.5,317.5 Z"/></g>
<g><path style="opacity:1" fill="#aca7a1" d="M 253.5,321.5 C 245.317,336.526 236.484,351.192 227,365.5C 211.66,353.614 197.16,340.947 183.5,327.5C 196.883,337.28 210.383,346.946 224,356.5C 233.698,344.642 243.531,332.976 253.5,321.5 Z"/></g>
<g><path style="opacity:1" fill="#aca7a1" d="M 259.5,324.5 C 267.756,335.268 276.256,345.934 285,356.5C 293.166,351.179 300.999,345.512 308.5,339.5C 315.518,334.807 322.518,330.141 329.5,325.5C 323.833,330.833 318.167,336.167 312.5,341.5C 302.853,349.477 293.186,357.477 283.5,365.5C 275.225,351.942 267.225,338.276 259.5,324.5 Z"/></g>
<g><path style="opacity:1" fill="#323536" d="M 251.5,374.5 C 262.221,374.05 266.721,379.05 265,389.5C 261.723,395.109 256.89,396.942 250.5,395C 242.207,387.695 242.54,380.862 251.5,374.5 Z"/></g>
<g><path style="opacity:1" fill="#323536" d="M 250.5,428.5 C 264.732,428.14 268.732,434.307 262.5,447C 256.823,450.799 251.657,450.299 247,445.5C 245.069,442.386 244.402,439.053 245,435.5C 246.666,433.004 248.5,430.671 250.5,428.5 Z"/></g>
<g><path style="opacity:1" fill="#323536" d="M 252.5,481.5 C 262.345,481.841 266.512,486.841 265,496.5C 261.723,502.109 256.89,503.942 250.5,502C 242.136,494.339 242.803,487.506 252.5,481.5 Z"/></g>
</svg>
