<?xml version="1.0" encoding="UTF-8"?>
<!DOCTYPE svg PUBLIC "-//W3C//DTD SVG 1.1//EN" "http://www.w3.org/Graphics/SVG/1.1/DTD/svg11.dtd">
<svg xmlns="http://www.w3.org/2000/svg" version="1.1" width="512px" height="512px" style="shape-rendering:geometricPrecision; text-rendering:geometricPrecision; image-rendering:optimizeQuality; fill-rule:evenodd; clip-rule:evenodd" xmlns:xlink="http://www.w3.org/1999/xlink">
<g><path style="opacity:0.992" fill="#393c3d" d="M 238.5,-0.5 C 249.167,-0.5 259.833,-0.5 270.5,-0.5C 302.717,3.44356 326.717,19.6102 342.5,48C 351.188,48.4273 358.354,51.9273 364,58.5C 372.358,71.2358 377.358,85.2358 379,100.5C 381.469,120.18 381.635,139.847 379.5,159.5C 376.189,167.751 372.855,176.085 369.5,184.5C 368.839,183.282 368.172,181.949 367.5,180.5C 366.893,180.624 366.56,180.957 366.5,181.5C 364.028,190.053 361.862,198.719 360,207.5C 358.324,212.178 355.491,216.011 351.5,219C 345.699,222.097 339.699,224.264 333.5,225.5C 318.18,227.793 303.18,226.626 288.5,222C 282.667,218.833 278.167,214.333 275,208.5C 271.079,200.406 267.746,192.072 265,183.5C 258.625,176.845 252.292,176.845 246,183.5C 242.59,194.983 237.59,205.649 231,215.5C 224.53,221.106 217.03,224.606 208.5,226C 195.714,227.123 183.047,226.456 170.5,224C 161.255,221.756 154.755,216.256 151,207.5C 148.786,199.549 146.786,191.549 145,183.5C 144.581,182.328 143.915,181.328 143,180.5C 142.667,182.167 142.333,183.833 142,185.5C 136.664,178.366 132.497,170.7 129.5,162.5C 124.149,134.186 124.315,105.853 130,77.5C 136.705,55.13 149.871,37.63 169.5,25C 190.932,12.0254 213.932,3.5254 238.5,-0.5 Z"/></g>
<g><path style="opacity:1" fill="#c9a281" d="M 366.5,146.5 C 366.5,150.5 366.5,154.5 366.5,158.5C 365.5,158.5 364.5,158.5 363.5,158.5C 347.628,155.837 331.628,154.837 315.5,155.5C 323.316,154.508 331.316,154.174 339.5,154.5C 339.628,145.134 339.128,135.8 338,126.5C 319.186,136.993 299.019,143.493 277.5,146C 239.104,150.896 201.104,148.896 163.5,140C 158.61,139.21 154.276,137.377 150.5,134.5C 199.518,145.333 248.518,145.167 297.5,134C 321.936,128.449 343.602,117.615 362.5,101.5C 365.056,116.388 366.389,131.388 366.5,146.5 Z"/></g>
<g><path style="opacity:1" fill="#d8b28f" d="M 315.5,155.5 C 306.765,155.567 298.098,156.4 289.5,158C 277.942,160.815 266.275,162.982 254.5,164.5C 240.817,162.197 227.15,159.697 213.5,157C 196.187,155.579 178.854,155.246 161.5,156C 155.067,156.692 148.734,157.859 142.5,159.5C 142.317,150.66 143.317,141.993 145.5,133.5C 147.071,134.309 148.738,134.643 150.5,134.5C 154.276,137.377 158.61,139.21 163.5,140C 201.104,148.896 239.104,150.896 277.5,146C 299.019,143.493 319.186,136.993 338,126.5C 339.128,135.8 339.628,145.134 339.5,154.5C 331.316,154.174 323.316,154.508 315.5,155.5 Z"/></g>
<g><path style="opacity:1" fill="#9c816c" d="M 366.5,146.5 C 367.485,150.634 367.818,154.968 367.5,159.5C 365.901,159.768 364.568,159.434 363.5,158.5C 364.5,158.5 365.5,158.5 366.5,158.5C 366.5,154.5 366.5,150.5 366.5,146.5 Z"/></g>
<g><path style="opacity:0.987" fill="#cba382" d="M 379.5,159.5 C 385.932,170.349 387.765,182.016 385,194.5C 383.443,203.522 379.776,211.522 374,218.5C 371.131,221.268 367.798,223.268 364,224.5C 357.993,258.531 342.16,286.865 316.5,309.5C 318.34,313.856 320.674,317.856 323.5,321.5C 322.118,324.394 320.118,326.894 317.5,329C 307.797,336.85 296.797,342.017 284.5,344.5C 280.222,341.56 276.222,338.227 272.5,334.5C 261.214,339.377 249.881,339.543 238.5,335C 225.274,330.391 213.274,323.724 202.5,315C 218.468,324.872 235.968,331.039 255,333.5C 270.51,327.4 283.843,318.067 295,305.5C 314.943,283.118 328.443,257.284 335.5,228C 335.316,226.624 334.649,225.791 333.5,225.5C 339.699,224.264 345.699,222.097 351.5,219C 355.491,216.011 358.324,212.178 360,207.5C 361.862,198.719 364.028,190.053 366.5,181.5C 367.302,182.952 367.802,184.618 368,186.5C 368.717,185.956 369.217,185.289 369.5,184.5C 372.855,176.085 376.189,167.751 379.5,159.5 Z"/></g>
<g><path style="opacity:1" fill="#d9b390" d="M 169.5,160.5 C 184.217,160.432 198.884,161.265 213.5,163C 220.526,163.849 227.193,165.849 233.5,169C 236.877,171.455 238.543,174.789 238.5,179C 237,190.168 233.5,200.668 228,210.5C 221.905,216.983 214.405,220.816 205.5,222C 190.662,224.194 176.662,221.86 163.5,215C 157.382,207.652 154.216,199.152 154,189.5C 149.305,174.21 154.471,164.543 169.5,160.5 Z"/></g>
<g><path style="opacity:1" fill="#dab390" d="M 319.5,161.5 C 326.167,161.5 332.833,161.5 339.5,161.5C 340.027,180.904 339.36,200.238 337.5,219.5C 320.684,224.595 304.351,223.428 288.5,216C 279.005,205.368 273.671,192.868 272.5,178.5C 272.446,174.442 274.112,171.276 277.5,169C 281.798,166.421 286.465,164.755 291.5,164C 300.747,162.177 310.08,161.344 319.5,161.5 Z"/></g>
<g><path style="opacity:1" fill="#caa382" d="M 319.5,161.5 C 354.93,156.121 366.43,170.454 354,204.5C 351.505,212.83 346.005,217.83 337.5,219.5C 339.36,200.238 340.027,180.904 339.5,161.5C 332.833,161.5 326.167,161.5 319.5,161.5 Z"/></g>
<g><path style="opacity:0.994" fill="#dab390" d="M 129.5,162.5 C 132.497,170.7 136.664,178.366 142,185.5C 142.333,183.833 142.667,182.167 143,180.5C 143.915,181.328 144.581,182.328 145,183.5C 146.786,191.549 148.786,199.549 151,207.5C 154.755,216.256 161.255,221.756 170.5,224C 183.047,226.456 195.714,227.123 208.5,226C 217.03,224.606 224.53,221.106 231,215.5C 237.59,205.649 242.59,194.983 246,183.5C 252.292,176.845 258.625,176.845 265,183.5C 267.746,192.072 271.079,200.406 275,208.5C 278.167,214.333 282.667,218.833 288.5,222C 303.18,226.626 318.18,227.793 333.5,225.5C 334.649,225.791 335.316,226.624 335.5,228C 328.443,257.284 314.943,283.118 295,305.5C 283.843,318.067 270.51,327.4 255,333.5C 235.968,331.039 218.468,324.872 202.5,315C 213.274,323.724 225.274,330.391 238.5,335C 249.881,339.543 261.214,339.377 272.5,334.5C 276.222,338.227 280.222,341.56 284.5,344.5C 284.5,344.833 284.5,345.167 284.5,345.5C 274.527,346.827 264.527,347.827 254.5,348.5C 231.461,348.542 210.795,341.709 192.5,328C 190.452,326.044 188.786,323.877 187.5,321.5C 190.199,317.945 192.532,314.111 194.5,310C 168.972,287.13 153.138,258.63 147,224.5C 137.96,221.125 131.96,214.792 129,205.5C 124.544,194.115 123.544,182.449 126,170.5C 126.387,167.401 127.554,164.734 129.5,162.5 Z"/></g>
<g><path style="opacity:1" fill="#736558" d="M 366.5,181.5 C 366.56,180.957 366.893,180.624 367.5,180.5C 368.172,181.949 368.839,183.282 369.5,184.5C 369.217,185.289 368.717,185.956 368,186.5C 367.802,184.618 367.302,182.952 366.5,181.5 Z"/></g>
<g><path style="opacity:1" fill="#e8e4db" d="M 187.5,321.5 C 188.786,323.877 190.452,326.044 192.5,328C 210.795,341.709 231.461,348.542 254.5,348.5C 264.527,347.827 274.527,346.827 284.5,345.5C 287.447,346.973 290.447,348.473 293.5,350C 301.385,352.24 309.051,354.74 316.5,357.5C 277.884,375.153 238.884,375.986 199.5,360C 187.2,354.2 176.867,346.033 168.5,335.5C 175.982,332.345 182.316,327.679 187.5,321.5 Z"/></g>
<g><path style="opacity:1" fill="#dedad2" d="M 323.5,321.5 C 328.684,327.679 335.018,332.345 342.5,335.5C 336.242,344.115 328.575,351.115 319.5,356.5C 318.391,356.557 317.391,356.89 316.5,357.5C 309.051,354.74 301.385,352.24 293.5,350C 290.447,348.473 287.447,346.973 284.5,345.5C 284.5,345.167 284.5,344.833 284.5,344.5C 296.797,342.017 307.797,336.85 317.5,329C 320.118,326.894 322.118,324.394 323.5,321.5 Z"/></g>
<g><path style="opacity:0.996" fill="#5c9ea0" d="M 168.5,335.5 C 176.867,346.033 187.2,354.2 199.5,360C 238.884,375.986 277.884,375.153 316.5,357.5C 317.391,356.89 318.391,356.557 319.5,356.5C 329.631,359.36 339.964,361.527 350.5,363C 372.677,366.762 393.343,374.429 412.5,386C 423.347,393.869 431.181,404.036 436,416.5C 444.17,442.187 448.336,468.52 448.5,495.5C 437.258,497.535 425.925,499.201 414.5,500.5C 414.5,488.167 414.5,475.833 414.5,463.5C 361.079,471.023 307.412,475.357 253.5,476.5C 200.813,476.415 148.479,472.082 96.5,463.5C 96.5,475.833 96.5,488.167 96.5,500.5C 68.2933,497.465 40.2933,493.132 12.5,487.5C 11.6041,458.147 15.7708,429.48 25,401.5C 31.8678,384.913 43.3678,372.746 59.5,365C 69.1271,360.346 79.1271,356.68 89.5,354C 109.777,349.411 130.111,345.078 150.5,341C 156.622,339.471 162.622,337.638 168.5,335.5 Z"/></g>
<g><path style="opacity:1" fill="#44919b" d="M 342.5,335.5 C 348.378,337.638 354.378,339.471 360.5,341C 386.508,345.601 412.175,351.601 437.5,359C 459.955,366.13 476.122,380.297 486,401.5C 495.058,429.506 499.224,458.173 498.5,487.5C 481.943,490.815 465.276,493.482 448.5,495.5C 448.336,468.52 444.17,442.187 436,416.5C 431.181,404.036 423.347,393.869 412.5,386C 393.343,374.429 372.677,366.762 350.5,363C 339.964,361.527 329.631,359.36 319.5,356.5C 328.575,351.115 336.242,344.115 342.5,335.5 Z"/></g>
<g><path style="opacity:1" fill="#44919b" d="M 414.5,500.5 C 374.795,505.321 335.129,508.988 295.5,511.5C 267.167,511.5 238.833,511.5 210.5,511.5C 172.462,509.284 134.462,505.617 96.5,500.5C 96.5,488.167 96.5,475.833 96.5,463.5C 148.479,472.082 200.813,476.415 253.5,476.5C 307.412,475.357 361.079,471.023 414.5,463.5C 414.5,475.833 414.5,488.167 414.5,500.5 Z"/></g>
</svg>
