<?xml version="1.0" encoding="UTF-8"?>
<!DOCTYPE svg PUBLIC "-//W3C//DTD SVG 1.1//EN" "http://www.w3.org/Graphics/SVG/1.1/DTD/svg11.dtd">
<svg xmlns="http://www.w3.org/2000/svg" version="1.1" width="512px" height="512px" style="shape-rendering:geometricPrecision; text-rendering:geometricPrecision; image-rendering:optimizeQuality; fill-rule:evenodd; clip-rule:evenodd" xmlns:xlink="http://www.w3.org/1999/xlink">
<g><path style="opacity:0.927" fill="#030302" d="M 511.5,439.5 C 511.5,441.167 511.5,442.833 511.5,444.5C 476.571,445.327 441.571,445.827 406.5,446C 407.576,447.726 407.743,449.559 407,451.5C 403.642,454.358 400.142,457.025 396.5,459.5C 393.625,457.869 392.958,455.536 394.5,452.5C 396.984,450.517 399.317,448.35 401.5,446C 383.5,445.333 365.5,445.333 347.5,446C 302.639,470.985 255.306,476.985 205.5,464C 190.773,459.635 176.773,453.635 163.5,446C 145.491,445.167 127.491,445.334 109.5,446.5C 111.191,451.265 109.524,453.099 104.5,452C 102.5,450 100.5,448 98.5,446C 65.4285,445.826 32.4285,445.326 -0.5,444.5C -0.5,442.833 -0.5,441.167 -0.5,439.5C 14.933,413.479 30.2663,387.312 45.5,361C 43.6217,357.709 42.7884,354.209 43,350.5C 46.0859,348.78 48.4192,349.447 50,352.5C 57.9672,338.37 66.1338,324.37 74.5,310.5C 67.8927,244.907 89.226,190.407 138.5,147C 153.292,135.551 169.126,125.718 186,117.5C 208.253,79.3297 230.253,40.9964 252,2.5C 254.333,-0.166667 256.667,-0.166667 259,2.5C 281.253,40.6703 303.253,79.0036 325,117.5C 396.625,151.521 434.458,208.355 438.5,288C 437.967,295.888 437.467,303.721 437,311.5C 445.252,325.002 453.252,338.669 461,352.5C 462.581,349.447 464.914,348.78 468,350.5C 468.212,354.209 467.378,357.709 465.5,361C 480.734,387.312 496.067,413.479 511.5,439.5 Z"/></g>
<g><path style="opacity:1" fill="#f8c55a" d="M 501.5,436.5 C 419.836,437.833 337.836,438.5 255.5,438.5C 173.164,438.5 91.1639,437.833 9.5,436.5C 90.983,294.201 172.983,152.201 255.5,10.5C 338.017,152.201 420.017,294.201 501.5,436.5 Z"/></g>
<g><path style="opacity:1" fill="#0a080a" d="M 254.5,63.5 C 256.371,63.8588 257.871,64.8588 259,66.5C 324.747,180.997 390.747,295.33 457,409.5C 457.684,410.784 457.517,411.951 456.5,413C 322.264,413.832 188.097,413.666 54,412.5C 53.3333,411.5 53.3333,410.5 54,409.5C 120.592,293.976 187.426,178.642 254.5,63.5 Z"/></g>
<g><path style="opacity:0.783" fill="#000000" d="M 202.5,71.5 C 206.264,72.385 207.264,74.5516 205.5,78C 201.602,79.475 197.602,80.6417 193.5,81.5C 189.278,80.3386 188.612,78.172 191.5,75C 195.333,73.9662 198.999,72.7995 202.5,71.5 Z"/></g>
<g><path style="opacity:0.795" fill="#000000" d="M 306.5,72.5 C 310.979,72.5359 315.312,73.3693 319.5,75C 322.388,78.172 321.722,80.3386 317.5,81.5C 314.167,80.6667 310.833,79.8333 307.5,79C 305.316,77.1024 304.983,74.9358 306.5,72.5 Z"/></g>
<g><path style="opacity:1" fill="#a58de6" d="M 258.5,112.5 C 259.167,102.167 259.833,91.8333 260.5,81.5C 270.355,98.1973 280.022,115.031 289.5,132C 287.206,141.387 286.039,150.887 286,160.5C 288.022,161.991 289.688,161.658 291,159.5C 292,152.833 293,146.167 294,139.5C 302.689,153.545 310.856,167.879 318.5,182.5C 316.099,188.867 313.599,195.201 311,201.5C 309.677,207.196 311.344,208.529 316,205.5C 317.801,199.902 320.134,194.569 323,189.5C 345.833,229.167 368.667,268.833 391.5,308.5C 387.893,309.489 384.226,309.823 380.5,309.5C 380.141,311.766 380.808,313.599 382.5,315C 387.202,315.172 391.868,315.672 396.5,316.5C 407.788,336.912 419.454,357.079 431.5,377C 413.524,367.501 395.857,357.167 378.5,346C 374.771,345.556 373.437,347.056 374.5,350.5C 395.334,363.418 416.334,376.085 437.5,388.5C 441.167,394.5 444.833,400.5 448.5,406.5C 431.176,407.666 413.843,407.833 396.5,407C 388.312,399.978 379.979,393.144 371.5,386.5C 369.054,387.427 368.221,389.094 369,391.5C 374.706,396.71 380.539,401.71 386.5,406.5C 370.342,407.496 354.009,407.83 337.5,407.5C 332.202,401.595 327.369,395.262 323,388.5C 321.301,387.594 319.467,387.261 317.5,387.5C 317.372,389.655 317.872,391.655 319,393.5C 322.752,398.018 326.252,402.684 329.5,407.5C 280.33,407.832 231.33,407.499 182.5,406.5C 188.168,399.327 193.668,391.993 199,384.5C 199.494,382.866 199.66,381.199 199.5,379.5C 196.675,379.081 194.509,380.081 193,382.5C 186.833,390.667 180.667,398.833 174.5,407C 157.833,407.667 141.167,407.667 124.5,407C 126.907,404.715 129.407,402.549 132,400.5C 132.942,397.77 131.942,396.437 129,396.5C 128.167,396.667 127.333,396.833 126.5,397C 123.023,400.567 119.356,403.9 115.5,407C 97.8239,407.833 80.1572,407.666 62.5,406.5C 65.8333,400.833 69.1667,395.167 72.5,389.5C 86.2418,381.546 99.7418,373.213 113,364.5C 113.611,360.912 112.111,359.746 108.5,361C 98.7594,367.18 89.0927,372.68 79.5,377.5C 91.4195,357.33 103.086,336.996 114.5,316.5C 119.467,315.671 124.467,315.171 129.5,315C 131.527,313.604 131.86,311.938 130.5,310C 126.789,309.825 123.122,309.325 119.5,308.5C 142.247,268.67 165.247,229.003 188.5,189.5C 192.428,198.115 196.262,206.782 200,215.5C 201.333,216.833 202.667,216.833 204,215.5C 204.667,213.833 204.667,212.167 204,210.5C 200.333,201.833 196.667,193.167 193,184.5C 192.333,183.167 192.333,181.833 193,180.5C 200.748,166.669 208.748,153.002 217,139.5C 218.163,145.468 219.163,151.468 220,157.5C 221.396,159.527 223.062,159.86 225,158.5C 224.332,148.495 223.665,138.495 223,128.5C 232.667,111.833 242.333,95.1667 252,78.5C 252.333,90.1667 252.667,101.833 253,113.5C 255.339,115.078 257.172,114.745 258.5,112.5 Z"/></g>
<g><path style="opacity:1" fill="#7967a9" d="M 260.5,81.5 C 259.833,91.8333 259.167,102.167 258.5,112.5C 258.333,101.162 258.5,89.8284 259,78.5C 259.513,79.5266 260.013,80.5266 260.5,81.5 Z"/></g>
<g><path style="opacity:0.778" fill="#000000" d="M 173.5,80.5 C 177.487,80.6518 178.987,82.6518 178,86.5C 173.536,89.434 168.703,90.934 163.5,91C 162.24,89.1862 162.24,87.3529 163.5,85.5C 166.937,83.8138 170.271,82.1472 173.5,80.5 Z"/></g>
<g><path style="opacity:0.778" fill="#000000" d="M 334.5,80.5 C 339.033,81.5678 343.366,83.2345 347.5,85.5C 349.552,90.6169 347.885,92.4502 342.5,91C 339.417,89.8608 336.417,88.5275 333.5,87C 332.144,84.5859 332.478,82.4193 334.5,80.5 Z"/></g>
<g><path style="opacity:0.783" fill="#000000" d="M 144.5,94.5 C 146.5,94.5 148.5,94.5 150.5,94.5C 150.799,96.604 150.466,98.604 149.5,100.5C 145.68,103.69 141.347,105.357 136.5,105.5C 135.392,103.305 135.559,101.305 137,99.5C 139.824,98.1819 142.324,96.5152 144.5,94.5 Z"/></g>
<g><path style="opacity:0.791" fill="#000000" d="M 360.5,94.5 C 366.739,94.5828 371.739,97.0828 375.5,102C 374.663,103.011 374.33,104.178 374.5,105.5C 369.648,105.243 365.315,103.576 361.5,100.5C 360.534,98.604 360.201,96.604 360.5,94.5 Z"/></g>
<g><path style="opacity:0.782" fill="#000000" d="M 122.5,109.5 C 123.583,109.539 124.583,109.873 125.5,110.5C 126.833,112.5 126.833,114.5 125.5,116.5C 123.167,118.333 120.833,120.167 118.5,122C 113.168,124.325 111.334,122.825 113,117.5C 116.145,114.696 119.312,112.03 122.5,109.5 Z"/></g>
<g><path style="opacity:0.775" fill="#000000" d="M 386.5,109.5 C 391.984,111.315 396.318,114.649 399.5,119.5C 398.074,123.223 395.74,124.056 392.5,122C 388.726,119.898 386.059,116.898 384.5,113C 384.862,111.566 385.528,110.399 386.5,109.5 Z"/></g>
<g><path style="opacity:1" fill="#0d0b10" d="M 253.5,124.5 C 255.167,124.5 256.833,124.5 258.5,124.5C 258.667,147.169 258.5,169.836 258,192.5C 256.333,193.833 254.667,193.833 253,192.5C 252.178,169.761 252.345,147.094 253.5,124.5 Z"/></g>
<g><path style="opacity:0.745" fill="#000000" d="M 99.5,129.5 C 103.75,130.893 104.583,133.56 102,137.5C 100.167,139.333 98.3333,141.167 96.5,143C 90.5493,144.103 89.0493,141.936 92,136.5C 94.3959,133.933 96.8959,131.6 99.5,129.5 Z"/></g>
<g><path style="opacity:0.744" fill="#000000" d="M 409.5,129.5 C 414.819,131.486 418.486,135.153 420.5,140.5C 420.392,141.442 420.059,142.275 419.5,143C 417.833,143.667 416.167,143.667 414.5,143C 410.941,140.455 408.608,137.121 407.5,133C 407.862,131.566 408.528,130.399 409.5,129.5 Z"/></g>
<g><path style="opacity:1" fill="#5c646e" d="M 177.5,129.5 C 178.239,129.369 178.906,129.536 179.5,130C 146.46,187.249 113.293,244.415 80,301.5C 76.854,231.29 104.354,176.79 162.5,138C 167.563,135.139 172.563,132.306 177.5,129.5 Z"/></g>
<g><path style="opacity:1" fill="#5c646e" d="M 331.5,130.5 C 331.56,129.957 331.893,129.624 332.5,129.5C 390.578,159.62 423.411,207.287 431,272.5C 431.667,282.167 431.667,291.833 431,301.5C 397.807,244.437 364.64,187.437 331.5,130.5 Z"/></g>
<g><path style="opacity:0.796" fill="#000000" d="M 78.5,152.5 C 83.1225,151.408 84.9558,153.075 84,157.5C 81.9545,160.423 79.7879,163.257 77.5,166C 72.9167,166.934 71.4167,165.1 73,160.5C 75.054,157.953 76.8874,155.286 78.5,152.5 Z"/></g>
<g><path style="opacity:0.782" fill="#000000" d="M 427.5,152.5 C 429.467,152.261 431.301,152.594 433,153.5C 435.29,156.58 437.457,159.747 439.5,163C 438.663,164.011 438.33,165.178 438.5,166.5C 435.348,167.041 432.848,166.041 431,163.5C 429.667,161.5 428.333,159.5 427,157.5C 426.36,155.735 426.527,154.068 427.5,152.5 Z"/></g>
<g><path style="opacity:1" fill="#09080b" d="M 258.5,204.5 C 258.5,214.5 258.5,224.5 258.5,234.5C 259.833,234.5 261.167,234.5 262.5,234.5C 265.909,234.249 269.242,234.583 272.5,235.5C 276.522,216.701 279.689,197.701 282,178.5C 283.439,172.828 285.605,172.328 288.5,177C 285.081,196.768 282.081,216.602 279.5,236.5C 284.693,237.073 289.693,238.406 294.5,240.5C 298.424,232.314 302.091,223.981 305.5,215.5C 307.045,214.548 308.712,214.215 310.5,214.5C 308.266,224.032 304.933,233.198 300.5,242C 329.469,255.064 349.469,276.564 360.5,306.5C 364.122,307.325 367.789,307.825 371.5,308C 373.658,309.312 373.991,310.978 372.5,313C 367.798,313.172 363.132,313.672 358.5,314.5C 355.618,319.103 352.618,323.603 349.5,328C 353.798,331.488 358.464,334.488 363.5,337C 364.833,338.667 364.833,340.333 363.5,342C 356.839,340.085 350.672,336.918 345,332.5C 339.761,338.41 333.928,343.577 327.5,348C 338.872,358.374 350.539,368.374 362.5,378C 364.5,382.333 363.167,384 358.5,383C 346.445,371.901 333.945,361.401 321,351.5C 314.587,354.859 308.087,358.026 301.5,361C 305.454,365.742 309.287,370.576 313,375.5C 314.128,377.345 314.628,379.345 314.5,381.5C 312.801,381.66 311.134,381.494 309.5,381C 305.141,374.088 299.974,367.921 294,362.5C 268.331,369.046 242.665,369.046 217,362.5C 214.171,364.952 211.671,367.785 209.5,371C 206.763,372.08 205.096,371.246 204.5,368.5C 206.13,365.857 207.797,363.191 209.5,360.5C 202.949,357.642 196.449,354.642 190,351.5C 174.218,364.278 158.718,377.445 143.5,391C 139.064,393.645 137.231,392.478 138,387.5C 153.967,374.699 169.467,361.365 184.5,347.5C 177.916,343.253 171.916,338.253 166.5,332.5C 153.701,340.135 141.034,347.969 128.5,356C 126.35,357.59 124.017,358.257 121.5,358C 120.167,356.333 120.167,354.667 121.5,353C 135.539,344.987 149.205,336.487 162.5,327.5C 158.581,323.079 155.248,318.246 152.5,313C 147.856,313.291 143.189,313.291 138.5,313C 137.14,311.062 137.473,309.396 139.5,308C 143.541,307.827 147.541,307.327 151.5,306.5C 161.164,280.679 177.831,260.845 201.5,247C 204.309,245.259 207.309,244.092 210.5,243.5C 208.333,236.505 205.667,229.672 202.5,223C 203.385,219.822 205.218,218.989 208,220.5C 210.805,227.086 213.305,233.753 215.5,240.5C 220.738,238.857 226.071,237.524 231.5,236.5C 228.406,213.511 225.406,190.511 222.5,167.5C 224.722,167.178 226.556,167.845 228,169.5C 231.175,191.573 234.675,213.573 238.5,235.5C 243.1,234.557 247.767,234.223 252.5,234.5C 252.334,224.494 252.5,214.494 253,204.5C 254.969,201.876 256.802,201.876 258.5,204.5 Z"/></g>
<g><path style="opacity:0.774" fill="#000000" d="M 62.5,176.5 C 64.1992,176.34 65.8659,176.506 67.5,177C 68.0585,177.725 68.3918,178.558 68.5,179.5C 67.1102,183.281 65.4435,186.947 63.5,190.5C 60.4288,193.42 58.0955,192.92 56.5,189C 58.3774,184.746 60.3774,180.579 62.5,176.5 Z"/></g>
<g><path style="opacity:0.781" fill="#000000" d="M 443.5,177.5 C 446.044,177.104 448.211,177.771 450,179.5C 451.636,182.606 453.136,185.773 454.5,189C 452.905,192.92 450.571,193.42 447.5,190.5C 445.833,187.167 444.167,183.833 442.5,180.5C 443.127,179.583 443.461,178.583 443.5,177.5 Z"/></g>
<g><path style="opacity:0.791" fill="#000000" d="M 458.5,202.5 C 459.721,203.028 460.887,203.695 462,204.5C 462.803,207.244 463.803,209.911 465,212.5C 466.67,219.18 464.67,220.846 459,217.5C 457.049,213.306 456.049,208.972 456,204.5C 456.995,203.934 457.828,203.267 458.5,202.5 Z"/></g>
<g><path style="opacity:0.78" fill="#000000" d="M 50.5,203.5 C 53.3523,203.352 55.019,204.686 55.5,207.5C 54.2365,210.79 53.0698,214.124 52,217.5C 48.5082,220.59 46.3415,219.923 45.5,215.5C 46.3963,211.135 48.0629,207.135 50.5,203.5 Z"/></g>
<g><path style="opacity:1" fill="#7967a9" d="M 258.5,204.5 C 259.494,213.986 259.827,223.652 259.5,233.5C 260.791,233.263 261.791,233.596 262.5,234.5C 261.167,234.5 259.833,234.5 258.5,234.5C 258.5,224.5 258.5,214.5 258.5,204.5 Z"/></g>
<g><path style="opacity:0.79" fill="#000000" d="M 40.5,231.5 C 42.1992,231.34 43.8659,231.506 45.5,232C 46.2088,236.843 45.7088,241.677 44,246.5C 40.4438,249.475 38.2771,248.642 37.5,244C 38.188,239.719 39.188,235.553 40.5,231.5 Z"/></g>
<g><path style="opacity:0.782" fill="#000000" d="M 465.5,232.5 C 469.162,231.637 471.328,232.97 472,236.5C 473.213,239.768 473.546,243.101 473,246.5C 471.112,248.922 469.112,248.922 467,246.5C 465.355,241.831 464.855,237.164 465.5,232.5 Z"/></g>
<g><path style="opacity:1" fill="#5c646e" d="M 242.5,240.5 C 290.729,236.274 326.396,255.107 349.5,297C 341.618,291.839 333.618,286.505 325.5,281C 267.602,250.122 213.435,255.622 163,297.5C 179.206,264.502 205.706,245.502 242.5,240.5 Z"/></g>
<g><path style="opacity:0.795" fill="#000000" d="M 35.5,261.5 C 38.8648,260.964 40.8648,262.297 41.5,265.5C 40.8367,268.806 40.3367,272.139 40,275.5C 35.4723,278.822 33.3057,277.656 33.5,272C 33.7252,268.376 34.3919,264.876 35.5,261.5 Z"/></g>
<g><path style="opacity:0.788" fill="#000000" d="M 470.5,261.5 C 472.467,261.261 474.301,261.594 476,262.5C 477.508,267.357 477.674,272.19 476.5,277C 474.299,277.825 472.466,277.325 471,275.5C 469.982,270.762 469.815,266.095 470.5,261.5 Z"/></g>
<g><path style="opacity:1" fill="#a8f0fa" d="M 241.5,267.5 C 250.506,267.334 259.506,267.5 268.5,268C 278.215,267.112 285.715,270.612 291,278.5C 301.848,298.813 299.014,316.98 282.5,333C 261.499,347.103 241.999,345.269 224,327.5C 210.32,307.681 211.487,288.848 227.5,271C 232.207,269.506 236.874,268.34 241.5,267.5 Z"/></g>
<g><path style="opacity:1" fill="#fcfcfc" d="M 294.5,274.5 C 317.012,281.111 336.679,292.944 353.5,310C 343.542,328.658 328.875,342.325 309.5,351C 276.552,363.832 243.219,364.832 209.5,354C 188.127,345.621 171.294,331.788 159,312.5C 158.333,311.167 158.333,309.833 159,308.5C 175.577,292.798 194.744,281.631 216.5,275C 203.419,298.598 206.753,319.598 226.5,338C 250.673,353.667 272.84,351.167 293,330.5C 303.012,316.8 305.679,301.8 301,285.5C 299.311,281.44 297.144,277.773 294.5,274.5 Z"/></g>
<g><path style="opacity:1" fill="#0c0b0b" d="M 250.5,276.5 C 271.007,276.173 280.841,286.173 280,306.5C 275.058,320.438 265.225,326.605 250.5,325C 236.595,320.082 230.428,310.249 232,295.5C 235.017,285.984 241.184,279.651 250.5,276.5 Z"/></g>
<g><path style="opacity:1" fill="#fa7057" d="M 250.5,282.5 C 266.697,281.203 274.531,288.536 274,304.5C 269.235,318.298 260.069,322.465 246.5,317C 235.801,308.009 234.801,298.009 243.5,287C 245.898,285.476 248.231,283.976 250.5,282.5 Z"/></g>
<g><path style="opacity:0.795" fill="#000000" d="M 473.5,289.5 C 474.583,289.539 475.583,289.873 476.5,290.5C 477.662,295.467 477.829,300.467 477,305.5C 474.888,307.922 472.888,307.922 471,305.5C 470.333,301.5 470.333,297.5 471,293.5C 471.48,291.867 472.313,290.534 473.5,289.5 Z"/></g>
<g><path style="opacity:0.786" fill="#000000" d="M 34.5,290.5 C 37.2385,289.965 39.0718,290.965 40,293.5C 40.6667,297.5 40.6667,301.5 40,305.5C 38,308.167 36,308.167 34,305.5C 33.2223,300.416 33.3889,295.416 34.5,290.5 Z"/></g>
<g><path style="opacity:0.778" fill="#000000" d="M 36.5,320.5 C 39.5468,319.855 41.7135,320.855 43,323.5C 44.2408,327.712 44.4075,331.879 43.5,336C 41.2992,336.825 39.4659,336.325 38,334.5C 36.4882,329.809 35.9882,325.143 36.5,320.5 Z"/></g>
<g><path style="opacity:0.784" fill="#000000" d="M 469.5,320.5 C 472.278,320.022 474.278,321.022 475.5,323.5C 474.668,327.155 473.835,330.821 473,334.5C 469.508,337.59 467.342,336.923 466.5,332.5C 466.865,328.287 467.865,324.287 469.5,320.5 Z"/></g>
<g><path style="opacity:1" fill="#4d426c" d="M 182.5,406.5 C 231.33,407.499 280.33,407.832 329.5,407.5C 305.738,408.171 281.238,408.505 256,408.5C 231.167,408.167 206.333,407.833 181.5,407.5C 181.624,406.893 181.957,406.56 182.5,406.5 Z"/></g>
<g><path style="opacity:1" fill="#4d426c" d="M 386.5,406.5 C 387.289,406.783 387.956,407.283 388.5,408C 371.328,408.828 354.328,408.662 337.5,407.5C 354.009,407.83 370.342,407.496 386.5,406.5 Z"/></g>
<g><path style="opacity:1" fill="#c89f49" d="M 9.5,436.5 C 91.1639,437.833 173.164,438.5 255.5,438.5C 337.836,438.5 419.836,437.833 501.5,436.5C 502.267,437.172 502.934,438.005 503.5,439C 338.167,439.667 172.833,439.667 7.5,439C 8.06594,438.005 8.73261,437.172 9.5,436.5 Z"/></g>
<g><path style="opacity:1" fill="#191b1e" d="M 333.5,446.5 C 281.5,445.167 229.5,445.167 177.5,446.5C 176.711,446.217 176.044,445.717 175.5,445C 228.833,444.333 282.167,444.333 335.5,445C 334.956,445.717 334.289,446.217 333.5,446.5 Z"/></g>
<g><path style="opacity:1" fill="#5c646e" d="M 177.5,446.5 C 229.5,445.167 281.5,445.167 333.5,446.5C 281.457,470.337 229.457,470.337 177.5,446.5 Z"/></g>
<g><path style="opacity:0.78" fill="#000000" d="M 119.5,458.5 C 124.825,459.08 129.325,461.414 133,465.5C 134.072,468.553 133.072,470.553 130,471.5C 126.064,469.235 122.397,466.568 119,463.5C 118.36,461.735 118.527,460.068 119.5,458.5 Z"/></g>
<g><path style="opacity:0.785" fill="#000000" d="M 378.5,464.5 C 383.068,464.083 384.568,466.083 383,470.5C 380.252,472.458 377.418,474.291 374.5,476C 369.917,476.934 368.417,475.1 370,470.5C 372.988,468.601 375.821,466.601 378.5,464.5 Z"/></g>
<g><path style="opacity:0.78" fill="#000000" d="M 144.5,474.5 C 149.277,475.22 153.61,477.053 157.5,480C 159.678,484.623 158.344,486.623 153.5,486C 149.225,484.043 145.559,481.376 142.5,478C 143.305,476.887 143.972,475.721 144.5,474.5 Z"/></g>
<g><path style="opacity:0.783" fill="#000000" d="M 353.5,479.5 C 357.487,479.652 358.987,481.652 358,485.5C 353.954,488.619 349.454,490.119 344.5,490C 343.24,488.186 343.24,486.353 344.5,484.5C 347.724,483.059 350.724,481.392 353.5,479.5 Z"/></g>
<g><path style="opacity:0.778" fill="#000000" d="M 171.5,487.5 C 175.924,488.418 180.258,489.752 184.5,491.5C 187.143,494.589 186.476,496.922 182.5,498.5C 178.833,497 175.167,495.5 171.5,494C 168.939,491.844 168.939,489.677 171.5,487.5 Z"/></g>
<g><path style="opacity:0.772" fill="#000000" d="M 324.5,491.5 C 326.924,491.192 329.257,491.526 331.5,492.5C 332.833,493.833 332.833,495.167 331.5,496.5C 327.144,499.119 322.478,500.619 317.5,501C 315.675,499.534 315.175,497.701 316,495.5C 318.876,494.052 321.709,492.719 324.5,491.5 Z"/></g>
<g><path style="opacity:0.799" fill="#000000" d="M 199.5,497.5 C 204.663,497.08 209.496,498.08 214,500.5C 215.272,504.229 213.939,505.896 210,505.5C 206.089,505.254 202.422,504.254 199,502.5C 198.36,500.735 198.527,499.068 199.5,497.5 Z"/></g>
<g><path style="opacity:0.79" fill="#000000" d="M 294.5,499.5 C 296.857,499.337 299.19,499.503 301.5,500C 302.935,502.267 302.602,504.267 300.5,506C 296.203,507.092 291.869,507.425 287.5,507C 286.446,505.612 286.28,504.112 287,502.5C 289.378,501.033 291.878,500.033 294.5,499.5 Z"/></g>
<g><path style="opacity:0.811" fill="#000000" d="M 227.5,502.5 C 232.599,502.175 237.599,502.675 242.5,504C 243.554,505.388 243.72,506.888 243,508.5C 238.587,509.632 234.087,509.799 229.5,509C 226.331,507.658 225.665,505.492 227.5,502.5 Z"/></g>
<g><path style="opacity:0.774" fill="#000000" d="M 258.5,503.5 C 263.214,503.173 267.88,503.507 272.5,504.5C 274.114,507.157 273.448,508.99 270.5,510C 266.5,510.667 262.5,510.667 258.5,510C 257.232,507.837 257.232,505.67 258.5,503.5 Z"/></g>
</svg>
