<?xml version="1.0" encoding="UTF-8"?>
<!DOCTYPE svg PUBLIC "-//W3C//DTD SVG 1.1//EN" "http://www.w3.org/Graphics/SVG/1.1/DTD/svg11.dtd">
<svg xmlns="http://www.w3.org/2000/svg" version="1.1" width="64px" height="64px" style="shape-rendering:geometricPrecision; text-rendering:geometricPrecision; image-rendering:optimizeQuality; fill-rule:evenodd; clip-rule:evenodd" xmlns:xlink="http://www.w3.org/1999/xlink">
<g><path style="opacity:0.988" fill="#33be32" d="M 23.5,0.5 C 42.7909,-2.33544 55.6242,5.33122 62,23.5C 65.3285,42.8055 57.8285,55.6389 39.5,62C 20.1945,65.3285 7.36112,57.8285 1,39.5C -2.1151,20.1648 5.3849,7.16479 23.5,0.5 Z"/></g>
<g><path style="opacity:1" fill="#f5fcf5" d="M 43.5,19.5 C 47.909,18.899 49.2424,20.5657 47.5,24.5C 39.3021,28.7072 32.9688,34.8739 28.5,43C 27.5,43.6667 26.5,43.6667 25.5,43C 22.6667,38.8333 19.1667,35.3333 15,32.5C 14.0141,30.0752 14.6807,28.4085 17,27.5C 20.899,29.3927 24.2324,32.0593 27,35.5C 31.7341,29.2642 37.2341,23.9308 43.5,19.5 Z"/></g>
</svg>
