<?xml version="1.0" encoding="UTF-8"?>
<!DOCTYPE svg PUBLIC "-//W3C//DTD SVG 1.1//EN" "http://www.w3.org/Graphics/SVG/1.1/DTD/svg11.dtd">
<svg xmlns="http://www.w3.org/2000/svg" version="1.1" width="48px" height="48px" style="shape-rendering:geometricPrecision; text-rendering:geometricPrecision; image-rendering:optimizeQuality; fill-rule:evenodd; clip-rule:evenodd" xmlns:xlink="http://www.w3.org/1999/xlink">
<g><path style="opacity:0.983" fill="#f44638" d="M 16.5,3.5 C 36.6499,1.48275 45.4833,10.4828 43,30.5C 37.6574,41.7523 28.8241,45.9189 16.5,43C 5.24773,37.6574 1.08107,28.8241 4,16.5C 6.35314,10.3154 10.5198,5.98203 16.5,3.5 Z"/></g>
<g><path style="opacity:1" fill="#fffaf9" d="M 16.5,15.5 C 19.0751,16.7284 21.4084,18.3951 23.5,20.5C 25.3159,19.1851 26.9825,17.6851 28.5,16C 30.6667,15.5 31.5,16.3333 31,18.5C 29.3149,20.0175 27.8149,21.6841 26.5,23.5C 27.8149,25.3159 29.3149,26.9825 31,28.5C 31.5,30.6667 30.6667,31.5 28.5,31C 26.9825,29.3149 25.3159,27.8149 23.5,26.5C 21.6841,27.8149 20.0175,29.3149 18.5,31C 16.3333,31.5 15.5,30.6667 16,28.5C 17.6851,26.9825 19.1851,25.3159 20.5,23.5C 19.1851,21.6841 17.6851,20.0175 16,18.5C 15.5304,17.4232 15.6971,16.4232 16.5,15.5 Z"/></g>
</svg>
