<?xml version="1.0" standalone="no"?>
<!DOCTYPE svg PUBLIC "-//W3C//DTD SVG 20010904//EN"
 "http://www.w3.org/TR/2001/REC-SVG-20010904/DTD/svg10.dtd">
<svg version="1.0" xmlns="http://www.w3.org/2000/svg"
 width="64.000000pt" height="64.000000pt" viewBox="0 0 64.000000 64.000000"
 preserveAspectRatio="xMidYMid meet">

<g transform="translate(0.000000,64.000000) scale(0.100000,-0.100000)"
fill="#000000" stroke="none">
<path d="M20 611 c-13 -25 -13 -191 0 -191 6 0 10 36 10 88 0 55 4 92 12 100
8 8 58 12 160 12 l148 0 0 -73 c0 -43 5 -78 12 -85 7 -7 42 -12 85 -12 l73 0
0 -100 c0 -85 -2 -99 -15 -93 -21 8 -55 -25 -55 -54 0 -17 -6 -23 -23 -23 -27
0 -57 -28 -57 -53 0 -18 37 -47 61 -47 11 0 18 -10 21 -30 l5 -30 -202 0
c-143 0 -204 3 -213 12 -8 8 -12 62 -12 175 0 102 -4 163 -10 163 -6 0 -10
-59 -10 -158 0 -126 3 -162 16 -180 15 -22 19 -22 253 -22 254 0 256 0 263 50
2 19 10 26 33 28 70 8 57 92 -14 92 -20 0 -21 5 -21 139 l0 138 -88 86 -87 87
-167 0 c-155 0 -168 -1 -178 -19z m420 -76 l64 -65 -67 0 -67 0 0 65 c0 36 1
65 3 65 1 0 32 -29 67 -65z m78 -307 c7 -7 12 -25 12 -40 0 -25 3 -28 34 -28
22 0 36 -6 40 -16 9 -24 -12 -44 -45 -44 -25 0 -29 -4 -29 -29 0 -16 -7 -34
-15 -41 -21 -18 -45 4 -45 41 0 25 -4 29 -29 29 -32 0 -56 22 -47 45 3 9 18
15 41 15 33 0 35 2 35 33 0 47 21 62 48 35z"/>
<path d="M10 390 c0 -5 5 -10 10 -10 6 0 10 5 10 10 0 6 -4 10 -10 10 -5 0
-10 -4 -10 -10z"/>
<path d="M133 393 c9 -2 23 -2 30 0 6 3 -1 5 -18 5 -16 0 -22 -2 -12 -5z"/>
<path d="M237 393 c18 -2 50 -2 70 0 21 2 7 4 -32 4 -38 0 -55 -2 -38 -4z"/>
<path d="M383 393 c9 -2 25 -2 35 0 9 3 1 5 -18 5 -19 0 -27 -2 -17 -5z"/>
<path d="M120 320 c0 -5 11 -10 25 -10 14 0 25 5 25 10 0 6 -11 10 -25 10 -14
0 -25 -4 -25 -10z"/>
<path d="M220 320 c0 -5 18 -10 40 -10 22 0 40 5 40 10 0 6 -18 10 -40 10 -22
0 -40 -4 -40 -10z"/>
<path d="M360 320 c0 -5 16 -10 35 -10 19 0 35 5 35 10 0 6 -16 10 -35 10 -19
0 -35 -4 -35 -10z"/>
<path d="M153 243 c20 -2 54 -2 75 0 20 2 3 4 -38 4 -41 0 -58 -2 -37 -4z"/>
<path d="M323 243 c15 -2 37 -2 50 0 12 2 0 4 -28 4 -27 0 -38 -2 -22 -4z"/>
</g>
</svg>
