<?xml version="1.0" encoding="UTF-8"?>
<!DOCTYPE svg PUBLIC "-//W3C//DTD SVG 1.1//EN" "http://www.w3.org/Graphics/SVG/1.1/DTD/svg11.dtd">
<svg xmlns="http://www.w3.org/2000/svg" version="1.1" width="512px" height="512px" style="shape-rendering:geometricPrecision; text-rendering:geometricPrecision; image-rendering:optimizeQuality; fill-rule:evenodd; clip-rule:evenodd" xmlns:xlink="http://www.w3.org/1999/xlink">
<g><path style="opacity:0.98" fill="#ab00ff" d="M 249.5,63.5 C 249.5,77.8333 249.5,92.1667 249.5,106.5C 241.786,107.171 234.12,108.171 226.5,109.5C 226.184,94.755 226.517,80.0884 227.5,65.5C 234.611,63.9766 241.944,63.3099 249.5,63.5 Z"/></g>
<g><path style="opacity:0.986" fill="#b200ff" d="M 249.5,63.5 C 259.206,63.2452 268.873,63.5785 278.5,64.5C 277.833,79.1667 277.167,93.8333 276.5,108.5C 267.616,106.965 258.616,106.298 249.5,106.5C 249.5,92.1667 249.5,77.8333 249.5,63.5 Z"/></g>
<g><path style="opacity:0.981" fill="#b800ff" d="M 278.5,64.5 C 285.763,65.0966 292.763,66.4299 299.5,68.5C 300.483,83.4219 300.816,98.4219 300.5,113.5C 292.67,111.067 284.67,109.401 276.5,108.5C 277.167,93.8333 277.833,79.1667 278.5,64.5 Z"/></g>
<g><path style="opacity:0.983" fill="#a500ff" d="M 227.5,65.5 C 226.517,80.0884 226.184,94.755 226.5,109.5C 218.79,111.344 211.123,113.344 203.5,115.5C 202.504,100.676 202.171,85.676 202.5,70.5C 210.628,67.941 218.962,66.2743 227.5,65.5 Z"/></g>
<g><path style="opacity:0.981" fill="#be00ff" d="M 299.5,68.5 C 308.642,69.947 317.309,72.6137 325.5,76.5C 324.504,91.9911 324.17,107.658 324.5,123.5C 316.725,119.612 308.725,116.279 300.5,113.5C 300.816,98.4219 300.483,83.4219 299.5,68.5 Z"/></g>
<g><path style="opacity:0.982" fill="#9f00ff" d="M 202.5,70.5 C 202.171,85.676 202.504,100.676 203.5,115.5C 195.963,119.351 188.296,123.017 180.5,126.5C 179.833,110.833 179.167,95.1667 178.5,79.5C 186.115,75.736 194.115,72.736 202.5,70.5 Z"/></g>
<g><path style="opacity:0.983" fill="#c400ff" d="M 325.5,76.5 C 333.875,78.8557 341.542,82.5223 348.5,87.5C 347.503,104.325 347.17,121.325 347.5,138.5C 340.08,133.073 332.414,128.073 324.5,123.5C 324.17,107.658 324.504,91.9911 325.5,76.5 Z"/></g>
<g><path style="opacity:0.979" fill="#9900ff" d="M 178.5,79.5 C 179.167,95.1667 179.833,110.833 180.5,126.5C 170.847,133.002 161.514,140.002 152.5,147.5C 151.503,129.674 151.17,111.674 151.5,93.5C 160.04,87.9636 169.04,83.2969 178.5,79.5 Z"/></g>
<g><path style="opacity:0.981" fill="#cb00ff" d="M 348.5,87.5 C 358.593,91.9386 367.593,97.9386 375.5,105.5C 375.83,126.007 375.497,146.34 374.5,166.5C 366.845,155.846 357.845,146.512 347.5,138.5C 347.17,121.325 347.503,104.325 348.5,87.5 Z"/></g>
<g><path style="opacity:0.98" fill="#9200ff" d="M 151.5,93.5 C 151.17,111.674 151.503,129.674 152.5,147.5C 144.048,156.276 136.381,165.61 129.5,175.5C 128.503,154.34 128.169,133.007 128.5,111.5C 135.569,104.767 143.236,98.7675 151.5,93.5 Z"/></g>
<g><path style="opacity:0.983" fill="#d100ff" d="M 375.5,105.5 C 384.091,111.422 391.758,118.422 398.5,126.5C 398.831,155.005 398.498,183.338 397.5,211.5C 392.191,195.214 384.524,180.214 374.5,166.5C 375.497,146.34 375.83,126.007 375.5,105.5 Z"/></g>
<g><path style="opacity:0.977" fill="#8c00ff" d="M 128.5,111.5 C 128.169,133.007 128.503,154.34 129.5,175.5C 98.8669,228.497 98.8669,281.497 129.5,334.5C 128.503,355.994 128.169,377.66 128.5,399.5C 119.147,392.48 111.147,384.147 104.5,374.5C 104.833,295.332 104.499,216.332 103.5,137.5C 110.481,127.519 118.814,118.853 128.5,111.5 Z"/></g>
<g><path style="opacity:0.987" fill="#d700ff" d="M 398.5,126.5 C 407.973,136.773 415.973,148.106 422.5,160.5C 422.5,223.833 422.5,287.167 422.5,350.5C 415.973,362.894 407.973,374.227 398.5,384.5C 398.831,356.328 398.498,328.328 397.5,300.5C 406.8,270.802 406.8,241.136 397.5,211.5C 398.498,183.338 398.831,155.005 398.5,126.5 Z"/></g>
<g><path style="opacity:0.993" fill="#8600ff" d="M 103.5,137.5 C 104.499,216.332 104.833,295.332 104.5,374.5C 94.7478,362.679 86.7478,349.679 80.5,335.5C 81.8333,282.167 81.8333,228.833 80.5,175.5C 86.5853,161.777 94.252,149.11 103.5,137.5 Z"/></g>
<g><path style="opacity:0.982" fill="#dd00ff" d="M 422.5,160.5 C 439.713,189.68 448.047,221.347 447.5,255.5C 448.05,289.642 439.716,321.309 422.5,350.5C 422.5,287.167 422.5,223.833 422.5,160.5 Z"/></g>
<g><path style="opacity:0.994" fill="#b100ff" d="M 252.5,169.5 C 257.474,169.245 262.141,170.245 266.5,172.5C 265.167,227.833 265.167,283.167 266.5,338.5C 261.635,341.232 256.635,341.899 251.5,340.5C 252.499,283.669 252.832,226.669 252.5,169.5 Z"/></g>
<g><path style="opacity:0.994" fill="#ab00ff" d="M 252.5,169.5 C 252.832,226.669 252.499,283.669 251.5,340.5C 247.835,340.498 244.835,339.165 242.5,336.5C 243.162,282.49 242.496,228.823 240.5,175.5C 243.918,172.458 247.918,170.458 252.5,169.5 Z"/></g>
<g><path style="opacity:0.993" fill="#b800ff" d="M 266.5,172.5 C 271.231,175.271 274.564,179.271 276.5,184.5C 275.167,231.833 275.167,279.167 276.5,326.5C 274.237,331.426 270.904,335.426 266.5,338.5C 265.167,283.167 265.167,227.833 266.5,172.5 Z"/></g>
<g><path style="opacity:0.966" fill="#8100ff" d="M 80.5,175.5 C 81.8333,228.833 81.8333,282.167 80.5,335.5C 62.6311,295.621 58.4645,254.288 68,211.5C 70.7689,198.973 74.9355,186.973 80.5,175.5 Z"/></g>
<g><path style="opacity:0.949" fill="#a600ff" d="M 240.5,175.5 C 242.496,228.823 243.162,282.49 242.5,336.5C 237.713,333.629 234.88,329.296 234,323.5C 233.5,308.17 233.333,292.837 233.5,277.5C 232.202,270.402 231.535,263.069 231.5,255.5C 231.535,247.931 232.202,240.598 233.5,233.5C 233.333,218.163 233.5,202.83 234,187.5C 234.891,182.712 237.058,178.712 240.5,175.5 Z"/></g>
<g><path style="opacity:0.88" fill="#bd00ff" d="M 276.5,184.5 C 277.456,200.798 277.789,217.132 277.5,233.5C 280.167,233.5 282.833,233.5 285.5,233.5C 285.5,248.167 285.5,262.833 285.5,277.5C 282.833,277.5 280.167,277.5 277.5,277.5C 277.789,293.868 277.456,310.202 276.5,326.5C 275.167,279.167 275.167,231.833 276.5,184.5 Z"/></g>
<g><path style="opacity:0.973" fill="#8c00ff" d="M 189.5,233.5 C 192.167,233.5 194.833,233.5 197.5,233.5C 198.833,248.167 198.833,262.833 197.5,277.5C 193.958,277.813 190.625,277.479 187.5,276.5C 188.182,262.265 188.849,247.932 189.5,233.5 Z"/></g>
<g><path style="opacity:0.972" fill="#9200ff" d="M 197.5,233.5 C 200.833,233.5 204.167,233.5 207.5,233.5C 208.798,240.598 209.465,247.931 209.5,255.5C 209.465,263.069 208.798,270.402 207.5,277.5C 204.167,277.5 200.833,277.5 197.5,277.5C 198.833,262.833 198.833,248.167 197.5,233.5 Z"/></g>
<g><path style="opacity:0.96" fill="#9900ff" d="M 207.5,233.5 C 212.833,233.5 218.167,233.5 223.5,233.5C 222.202,240.598 221.535,247.931 221.5,255.5C 221.535,263.069 222.202,270.402 223.5,277.5C 218.167,277.5 212.833,277.5 207.5,277.5C 208.798,270.402 209.465,263.069 209.5,255.5C 209.465,247.931 208.798,240.598 207.5,233.5 Z"/></g>
<g><path style="opacity:0.97" fill="#9f00ff" d="M 223.5,233.5 C 226.833,233.5 230.167,233.5 233.5,233.5C 232.202,240.598 231.535,247.931 231.5,255.5C 231.535,263.069 232.202,270.402 233.5,277.5C 230.167,277.5 226.833,277.5 223.5,277.5C 222.202,270.402 221.535,263.069 221.5,255.5C 221.535,247.931 222.202,240.598 223.5,233.5 Z"/></g>
<g><path style="opacity:0.97" fill="#c400ff" d="M 285.5,233.5 C 289.167,233.5 292.833,233.5 296.5,233.5C 296.5,248.167 296.5,262.833 296.5,277.5C 292.833,277.5 289.167,277.5 285.5,277.5C 285.5,262.833 285.5,248.167 285.5,233.5 Z"/></g>
<g><path style="opacity:0.975" fill="#ca00ff" d="M 296.5,233.5 C 299.833,233.5 303.167,233.5 306.5,233.5C 307.798,240.598 308.465,247.931 308.5,255.5C 308.465,263.069 307.798,270.402 306.5,277.5C 303.167,277.5 299.833,277.5 296.5,277.5C 296.5,262.833 296.5,248.167 296.5,233.5 Z"/></g>
<g><path style="opacity:0.97" fill="#d100ff" d="M 306.5,233.5 C 310.167,233.5 313.833,233.5 317.5,233.5C 318.798,240.598 319.465,247.931 319.5,255.5C 319.465,263.069 318.798,270.402 317.5,277.5C 313.833,277.5 310.167,277.5 306.5,277.5C 307.798,270.402 308.465,263.069 308.5,255.5C 308.465,247.931 307.798,240.598 306.5,233.5 Z"/></g>
<g><path style="opacity:0.969" fill="#d900ff" d="M 317.5,233.5 C 332.209,233.543 340.209,240.876 341.5,255.5C 339.803,269.686 331.803,277.019 317.5,277.5C 318.798,270.402 319.465,263.069 319.5,255.5C 319.465,247.931 318.798,240.598 317.5,233.5 Z"/></g>
<g><path style="opacity:0.976" fill="#8600ff" d="M 189.5,233.5 C 188.849,247.932 188.182,262.265 187.5,276.5C 176.176,274.244 170.176,267.244 169.5,255.5C 170.251,242.751 176.917,235.417 189.5,233.5 Z"/></g>
<g><path style="opacity:0.982" fill="#d100ff" d="M 397.5,300.5 C 398.498,328.328 398.831,356.328 398.5,384.5C 391.758,392.578 384.091,399.578 375.5,405.5C 375.83,384.993 375.497,364.66 374.5,344.5C 384.267,330.968 391.933,316.302 397.5,300.5 Z"/></g>
<g><path style="opacity:0.98" fill="#9200ff" d="M 129.5,334.5 C 135.869,344.559 143.202,353.893 151.5,362.5C 151.18,380.91 151.514,399.243 152.5,417.5C 143.646,412.647 135.646,406.647 128.5,399.5C 128.169,377.66 128.503,355.994 129.5,334.5 Z"/></g>
<g><path style="opacity:0.982" fill="#cb00ff" d="M 374.5,344.5 C 375.497,364.66 375.83,384.993 375.5,405.5C 367.593,413.061 358.593,419.061 348.5,423.5C 347.503,406.675 347.17,389.675 347.5,372.5C 357.845,364.488 366.845,355.154 374.5,344.5 Z"/></g>
<g><path style="opacity:0.983" fill="#9900ff" d="M 151.5,362.5 C 159.937,369.938 168.937,376.604 178.5,382.5C 179.81,398.961 179.81,415.294 178.5,431.5C 168.901,428.37 160.234,423.703 152.5,417.5C 151.514,399.243 151.18,380.91 151.5,362.5 Z"/></g>
<g><path style="opacity:0.982" fill="#c400ff" d="M 347.5,372.5 C 347.17,389.675 347.503,406.675 348.5,423.5C 341.047,428.439 333.047,432.439 324.5,435.5C 324.5,419.5 324.5,403.5 324.5,387.5C 332.414,382.927 340.08,377.927 347.5,372.5 Z"/></g>
<g><path style="opacity:0.982" fill="#9f00ff" d="M 178.5,382.5 C 186.221,387.027 194.221,391.027 202.5,394.5C 202.5,409.833 202.5,425.167 202.5,440.5C 194.115,438.264 186.115,435.264 178.5,431.5C 179.81,415.294 179.81,398.961 178.5,382.5 Z"/></g>
<g><path style="opacity:0.98" fill="#be00ff" d="M 324.5,387.5 C 324.5,403.5 324.5,419.5 324.5,435.5C 317.61,437.908 310.61,439.908 303.5,441.5C 302.5,441.5 301.5,441.5 300.5,441.5C 301.15,426.794 300.483,412.461 298.5,398.5C 307.253,395.242 315.92,391.576 324.5,387.5 Z"/></g>
<g><path style="opacity:0.98" fill="#a500ff" d="M 202.5,394.5 C 210.896,397.766 219.562,400.099 228.5,401.5C 226.542,415.924 225.876,430.59 226.5,445.5C 218.314,444.596 210.314,442.93 202.5,440.5C 202.5,425.167 202.5,409.833 202.5,394.5 Z"/></g>
<g><path style="opacity:0.98" fill="#b800ff" d="M 298.5,398.5 C 300.483,412.461 301.15,426.794 300.5,441.5C 301.5,441.5 302.5,441.5 303.5,441.5C 295.147,444.17 286.481,445.836 277.5,446.5C 278.124,431.59 277.458,416.924 275.5,402.5C 283.252,401.645 290.919,400.312 298.5,398.5 Z"/></g>
<g><path style="opacity:0.983" fill="#ab00ff" d="M 228.5,401.5 C 235.41,402.862 242.41,403.862 249.5,404.5C 249.5,418.833 249.5,433.167 249.5,447.5C 241.714,447.645 234.047,446.978 226.5,445.5C 225.876,430.59 226.542,415.924 228.5,401.5 Z"/></g>
<g><path style="opacity:0.988" fill="#b100ff" d="M 275.5,402.5 C 277.458,416.924 278.124,431.59 277.5,446.5C 268.22,447.447 258.886,447.78 249.5,447.5C 249.5,433.167 249.5,418.833 249.5,404.5C 258.282,404.671 266.949,404.004 275.5,402.5 Z"/></g>
</svg>
