<?xml version="1.0" standalone="no"?>
<!DOCTYPE svg PUBLIC "-//W3C//DTD SVG 20010904//EN"
 "http://www.w3.org/TR/2001/REC-SVG-20010904/DTD/svg10.dtd">
<svg version="1.0" xmlns="http://www.w3.org/2000/svg"
 width="512.000000pt" height="512.000000pt" viewBox="0 0 512.000000 512.000000"
 preserveAspectRatio="xMidYMid meet">

<g transform="translate(0.000000,512.000000) scale(0.100000,-0.100000)"
fill="#000000" stroke="none">
<path d="M390 5109 c-125 -24 -266 -130 -327 -245 -80 -149 -83 -298 -11 -454
28 -60 93 -127 922 -957 l891 -893 -891 -892 c-830 -832 -894 -898 -923 -959
-116 -248 -17 -536 224 -655 139 -69 291 -70 434 -3 61 29 127 93 959 923
l892 891 893 -891 c831 -830 897 -894 958 -923 248 -116 535 -18 655 224 69
139 70 291 3 434 -29 61 -93 127 -923 959 l-891 892 891 893 c674 676 897 904
917 943 100 191 64 426 -89 580 -151 151 -387 187 -578 87 -39 -20 -267 -243
-943 -917 l-893 -891 -892 891 c-831 829 -898 894 -958 922 -107 49 -209 63
-320 41z"/>
</g>
</svg>
