<?xml version="1.0" encoding="UTF-8"?>
<!DOCTYPE svg PUBLIC "-//W3C//DTD SVG 1.1//EN" "http://www.w3.org/Graphics/SVG/1.1/DTD/svg11.dtd">
<svg xmlns="http://www.w3.org/2000/svg" version="1.1" width="48px" height="48px" style="shape-rendering:geometricPrecision; text-rendering:geometricPrecision; image-rendering:optimizeQuality; fill-rule:evenodd; clip-rule:evenodd" xmlns:xlink="http://www.w3.org/1999/xlink">
<g><path fill="#ffffff" d="M 16.5,3.5 C 19.5,3.5 22.5,3.5 25.5,3.5C 25.719,4.67504 25.3857,5.67504 24.5,6.5C 8.05546,9.98168 3.55546,19.315 11,34.5C 14.7599,35.9167 15.2599,37.9167 12.5,40.5C 3.92852,34.7339 1.09519,26.7339 4,16.5C 6.35314,10.3154 10.5198,5.98203 16.5,3.5 Z"/></g>
<g><path fill="#ffffff" d="M 27.5,4.5 C 35.297,4.99356 40.4637,8.99356 43,16.5C 45.6629,36.1694 37.1629,45.0028 17.5,43C 16.6634,41.9887 16.33,40.8221 16.5,39.5C 34.5067,41.0001 41.6733,33.0001 38,15.5C 35.2459,12.076 31.9126,9.40938 28,7.5C 27.5172,6.55198 27.3505,5.55198 27.5,4.5 Z"/></g>
<g><path fill="#ffffff" d="M 19.5,10.5 C 34.2702,10.7172 39.1036,17.7172 34,31.5C 28.4901,37.0431 22.3234,37.8764 15.5,34C 10.9914,30.1175 9.49142,25.2841 11,19.5C 12.0113,18.6634 13.1779,18.33 14.5,18.5C 13.5337,29.3793 18.2004,33.546 28.5,31C 33.8333,26 33.8333,21 28.5,16C 26.9656,15.077 25.299,14.577 23.5,14.5C 20.1289,15.5768 16.7956,16.5768 13.5,17.5C 13.3505,16.448 13.5172,15.448 14,14.5C 15.8121,13.0229 17.6455,11.6896 19.5,10.5 Z"/></g>
</svg>
