<?xml version="1.0" encoding="UTF-8"?>
<!DOCTYPE svg PUBLIC "-//W3C//DTD SVG 1.1//EN" "http://www.w3.org/Graphics/SVG/1.1/DTD/svg11.dtd">
<svg xmlns="http://www.w3.org/2000/svg" version="1.1" width="50px" height="50px" style="shape-rendering:geometricPrecision; text-rendering:geometricPrecision; image-rendering:optimizeQuality; fill-rule:evenodd; clip-rule:evenodd" xmlns:xlink="http://www.w3.org/1999/xlink">
<g><path style="opacity:0.729" fill="#ffffff" d="M 1.5,-0.5 C 2.83333,-0.5 4.16667,-0.5 5.5,-0.5C 7.15134,0.970083 8.98467,2.30342 11,3.5C 11.3333,4.83333 11.6667,6.16667 12,7.5C 15.6667,11.1667 19.3333,14.8333 23,18.5C 23.7845,16.714 24.9512,15.214 26.5,14C 24.0337,10.9938 23.8671,7.82716 26,4.5C 27.9651,2.44965 30.1318,0.782988 32.5,-0.5C 35.5,-0.5 38.5,-0.5 41.5,-0.5C 40.1122,2.67407 38.6122,5.67407 37,8.5C 38.3513,10.019 39.8513,11.3523 41.5,12.5C 43.3159,11.1851 44.9825,9.68511 46.5,8C 47.448,7.51722 48.448,7.35055 49.5,7.5C 49.5,10.1667 49.5,12.8333 49.5,15.5C 48.1244,20.5092 44.791,23.5092 39.5,24.5C 36.8613,22.7473 34.1947,22.414 31.5,23.5C 37.7718,28.4333 43.7718,33.7666 49.5,39.5C 49.5,42.1667 49.5,44.8333 49.5,47.5C 48.5,47.8333 47.8333,48.5 47.5,49.5C 44.8333,49.5 42.1667,49.5 39.5,49.5C 33.7666,43.7718 28.4333,37.7718 23.5,31.5C 21.2818,34.7154 20.1152,38.382 20,42.5C 19.0332,45.6206 17.1999,47.954 14.5,49.5C 11.5,49.5 8.5,49.5 5.5,49.5C 3.16667,47.8333 1.16667,45.8333 -0.5,43.5C -0.5,40.5 -0.5,37.5 -0.5,34.5C 2.65941,30.2533 6.99275,28.0866 12.5,28C 14.208,25.9565 16.208,24.2899 18.5,23C 14.8333,19.3333 11.1667,15.6667 7.5,12C 6.16667,11.6667 4.83333,11.3333 3.5,11C 2.30342,8.98467 0.970083,7.15134 -0.5,5.5C -0.5,4.16667 -0.5,2.83333 -0.5,1.5C 0.5,1.16667 1.16667,0.5 1.5,-0.5 Z M 8.5,8.5 C 5.48204,8.20017 3.48204,6.5335 2.5,3.5C 2.83333,3.16667 3.16667,2.83333 3.5,2.5C 6.5335,3.48204 8.20017,5.48204 8.5,8.5 Z M 45.5,14.5 C 43.9894,20.6742 40.4894,22.3409 35,19.5C 32.9264,20.0717 31.7598,21.405 31.5,23.5C 30.7797,20.9399 29.113,19.1065 26.5,18C 30.1311,15.5925 30.4644,12.7592 27.5,9.5C 28.9246,5.55514 31.5913,3.38847 35.5,3C 34.1279,4.24186 33.1279,5.74186 32.5,7.5C 34.8796,13.9467 39.2129,16.28 45.5,14.5 Z M 26.5,21.5 C 27.287,25.7825 29.9537,28.2825 34.5,29C 38.3333,32.8333 42.1667,36.6667 46,40.5C 47.2224,45.9254 45.3891,47.7588 40.5,46C 34.8377,41.3486 30.3377,35.8486 27,29.5C 25.5093,27.9963 23.676,27.1629 21.5,27C 23.3734,25.2962 25.0401,23.4628 26.5,21.5 Z M 23.5,31.5 C 18.7679,33.0812 16.6013,36.4145 17,41.5C 16.6232,42.9423 15.7899,43.9423 14.5,44.5C 16.8333,35.5 13.5,32.1667 4.5,34.5C 5.05773,33.2101 6.05773,32.3768 7.5,32C 9.5,31.6667 11.5,31.3333 13.5,31C 15,29.5 16.5,28 18,26.5C 19.1065,29.113 20.9399,30.7797 23.5,31.5 Z M 4.5,34.5 C 2.18697,39.7277 3.68697,43.3944 9,45.5C 10.7659,44.7665 12.5992,44.4332 14.5,44.5C 11.4702,46.9784 8.13684,47.1451 4.5,45C 1.85563,41.3891 1.85563,37.8891 4.5,34.5 Z M 7.5,36.5 C 11.5,35.8333 13.1667,37.5 12.5,41.5C 7.83333,42.8333 6.16667,41.1667 7.5,36.5 Z"/></g>
<g><path style="opacity:0.848" fill="#ffffff" d="M 30.5,29.5 C 35.0719,32.5633 39.2385,36.23 43,40.5C 43.5,42.6667 42.6667,43.5 40.5,43C 37,39.5 33.5,36 30,32.5C 29.5304,31.4232 29.6971,30.4232 30.5,29.5 Z"/></g>
<g><path style="opacity:0.727" fill="#ffffff" d="M 14.5,44.5 C 12.5992,44.4332 10.7659,44.7665 9,45.5C 3.68697,43.3944 2.18697,39.7277 4.5,34.5C 13.5,32.1667 16.8333,35.5 14.5,44.5 Z M 7.5,36.5 C 6.16667,41.1667 7.83333,42.8333 12.5,41.5C 13.1667,37.5 11.5,35.8333 7.5,36.5 Z"/></g>
</svg>
